<?xml version="1.0" encoding="UTF-8"?>
<svg xmlns="http://www.w3.org/2000/svg" xmlns:xlink="http://www.w3.org/1999/xlink" width="512px" height="512px" viewBox="0 0 512 512" version="1.1">
<g id="surface1">
<path style=" stroke:none;fill-rule:nonzero;fill:rgb(0%,0%,0%);fill-opacity:1;" d="M 512 256 C 512 114.613281 397.386719 0 256 0 C 114.613281 0 0 114.613281 0 256 C 0 397.386719 114.613281 512 256 512 C 397.386719 512 512 397.386719 512 256 Z M 512 256 "/>
<path style=" stroke:none;fill-rule:nonzero;fill:rgb(100%,100%,100%);fill-opacity:1;" d="M 424.203125 180.207031 C 409.683594 170.050781 394.15625 159.222656 378.964844 148.480469 C 378.628906 148.226562 378.292969 147.976562 377.871094 147.722656 C 376.195312 146.464844 374.261719 145.121094 371.914062 144.367188 L 371.746094 144.285156 C 331.121094 134.464844 289.824219 124.390625 249.871094 114.65625 C 213.613281 105.839844 177.4375 97.027344 141.175781 88.214844 C 140.253906 87.964844 139.332031 87.710938 138.324219 87.460938 C 135.050781 86.535156 131.273438 85.527344 127.246094 86.03125 C 126.070312 86.199219 125.0625 86.621094 124.140625 87.207031 L 123.132812 88.046875 C 121.535156 89.558594 120.699219 91.488281 120.277344 92.578125 L 120.027344 93.25 L 120.027344 97.113281 L 120.195312 97.699219 C 143.109375 161.910156 166.609375 227.042969 189.273438 290.078125 C 206.730469 338.589844 224.859375 388.867188 242.570312 438.222656 C 243.660156 441.578125 246.765625 443.761719 250.628906 444.097656 L 251.46875 444.097656 C 255.078125 444.097656 258.265625 442.335938 259.859375 439.480469 L 326.335938 342.535156 C 342.535156 318.949219 358.734375 295.28125 374.933594 271.695312 C 381.566406 262.042969 388.195312 252.308594 394.828125 242.65625 C 405.738281 226.707031 416.984375 210.253906 428.148438 194.222656 L 428.738281 193.386719 L 428.738281 192.378906 C 428.988281 189.441406 429.074219 183.398438 424.203125 180.207031 M 346.3125 215.542969 C 330.703125 223.683594 314.753906 232.078125 298.722656 240.386719 C 308.039062 230.398438 317.441406 220.328125 326.757812 210.339844 C 338.421875 197.75 350.59375 184.738281 362.511719 171.980469 L 362.765625 171.730469 C 363.773438 170.386719 365.03125 169.128906 366.375 167.785156 C 367.296875 166.863281 368.304688 165.9375 369.226562 164.847656 C 375.4375 169.128906 381.734375 173.492188 387.777344 177.773438 C 392.140625 180.878906 396.589844 183.984375 401.121094 187.089844 C 382.65625 196.492188 364.191406 206.144531 346.3125 215.542969 M 306.191406 211.515625 C 294.191406 224.523438 281.769531 237.871094 269.429688 251.046875 C 245.507812 222.007812 221.082031 192.546875 197.414062 164.09375 C 186.671875 151.164062 175.84375 138.15625 165.097656 125.230469 L 165.015625 125.144531 C 162.582031 122.375 160.230469 119.355469 157.878906 116.5 C 156.371094 114.570312 154.773438 112.722656 153.179688 110.792969 C 162.917969 113.3125 172.738281 115.660156 182.390625 117.929688 C 190.867188 119.941406 199.679688 122.039062 208.324219 124.222656 C 257.007812 136.058594 305.773438 147.890625 354.457031 159.726562 C 338.253906 177.019531 321.972656 194.558594 306.191406 211.515625 M 263.972656 375.101562 C 264.898438 366.289062 265.902344 357.226562 266.742188 348.328125 C 267.5 341.195312 268.253906 333.890625 269.011719 326.925781 C 270.183594 315.761719 271.445312 304.179688 272.449219 292.847656 L 272.703125 290.832031 C 273.542969 283.613281 274.382812 276.144531 274.886719 268.675781 C 275.808594 268.171875 276.816406 267.667969 277.90625 267.246094 C 279.164062 266.660156 280.425781 266.15625 281.683594 265.402344 C 301.074219 255.246094 320.460938 245.089844 339.933594 235.015625 C 359.324219 224.945312 379.214844 214.535156 398.941406 204.210938 C 380.976562 230.230469 362.933594 256.503906 345.472656 282.105469 C 330.449219 304.011719 315.007812 326.589844 299.644531 348.832031 C 293.601562 357.730469 287.308594 366.792969 281.347656 375.523438 C 274.632812 385.257812 267.75 395.246094 261.035156 405.234375 C 261.875 395.164062 262.882812 385.007812 263.972656 375.101562 M 146.96875 130.601562 C 145.878906 127.582031 144.703125 124.476562 143.695312 121.535156 C 166.359375 148.898438 189.1875 176.429688 211.429688 203.121094 C 222.929688 216.96875 234.429688 230.734375 245.929688 244.667969 C 248.195312 247.269531 250.460938 250.039062 252.644531 252.726562 C 255.496094 256.167969 258.351562 259.777344 261.457031 263.21875 C 260.449219 271.863281 259.609375 280.59375 258.6875 288.984375 C 258.097656 294.863281 257.511719 300.738281 256.839844 306.695312 L 256.839844 306.78125 C 256.585938 310.558594 256.082031 314.335938 255.664062 318.027344 C 255.078125 323.148438 253.734375 334.730469 253.734375 334.730469 L 253.648438 335.316406 C 252.140625 352.273438 250.292969 369.394531 248.53125 386.015625 C 247.773438 392.898438 247.101562 399.949219 246.347656 406.996094 C 245.929688 405.738281 245.425781 404.480469 245.003906 403.304688 C 243.746094 399.949219 242.488281 396.421875 241.3125 392.980469 L 232.332031 368.050781 C 203.875 288.902344 175.421875 209.835938 146.96875 130.601562 "/>
</g>
</svg>
