<svg version="1.1" id="Layer_1" xmlns="http://www.w3.org/2000/svg" xmlns:xlink="http://www.w3.org/1999/xlink" x="0px" y="0px"
	 width="100%" viewBox="0 0 376 378" enable-background="new 0 0 376 378" xml:space="preserve">
<path fill="#000000" opacity="1.000000" stroke="none" 
	d="
M348.000000,379.000000 
	C232.000015,379.000000 116.500038,379.000000 1.000046,379.000000 
	C1.000031,253.000046 1.000031,127.000084 1.000015,1.000097 
	C126.333275,1.000065 251.666550,1.000065 376.999878,1.000032 
	C376.999908,126.999908 376.999908,252.999817 376.999939,378.999878 
	C367.500000,379.000000 358.000000,379.000000 348.000000,379.000000 
M263.499969,220.906387 
	C294.573334,220.906387 325.646698,220.906387 356.873016,220.906387 
	C356.873016,202.668854 356.873016,185.060349 356.873016,167.282883 
	C247.163040,167.282883 137.751831,167.282883 28.239819,167.282883 
	C28.239819,185.194519 28.239819,202.914032 28.239819,220.906387 
	C106.600700,220.906387 184.550323,220.906387 263.499969,220.906387 
z"/>
<path fill="#4147D2" opacity="1.000000" stroke="none" 
	d="
M262.999939,220.906387 
	C184.550323,220.906387 106.600700,220.906387 28.239819,220.906387 
	C28.239819,202.914032 28.239819,185.194519 28.239819,167.282883 
	C137.751831,167.282883 247.163040,167.282883 356.873016,167.282883 
	C356.873016,185.060349 356.873016,202.668854 356.873016,220.906387 
	C325.646698,220.906387 294.573334,220.906387 262.999939,220.906387 
M112.514267,217.234009 
	C118.492165,215.075974 120.794266,212.170044 120.927788,205.832733 
	C121.089012,198.180801 121.053421,190.521896 120.950676,182.868042 
	C120.854332,175.690613 117.762993,171.125656 110.707611,170.268829 
	C103.563637,169.401260 96.145981,169.471939 88.997681,170.349411 
	C82.673447,171.125732 79.905434,174.837753 79.558136,181.385956 
	C79.126991,189.515152 79.000648,197.689026 79.318977,205.821030 
	C79.605713,213.145630 82.361732,216.841476 89.630005,217.724579 
	C96.904991,218.608475 104.396065,217.713898 112.514267,217.234009 
M70.801193,174.841766 
	C71.295258,171.135452 69.682899,169.616760 65.979538,169.991196 
	C64.167564,170.174393 62.311584,170.147629 60.493591,169.997345 
	C57.088795,169.715866 55.604301,171.037613 55.820431,174.570129 
	C56.034523,178.069321 55.867256,181.591843 55.867256,186.457413 
	C51.055725,181.042969 47.229454,176.906769 43.600227,172.604370 
	C40.145714,168.509079 35.555527,169.940231 31.529551,170.490524 
	C30.558706,170.623215 29.688507,175.168579 29.636393,177.702469 
	C29.424288,188.015198 29.558565,198.334869 29.545216,208.651947 
	C29.531046,219.601334 29.268888,217.626724 38.993095,218.069153 
	C43.440723,218.271500 44.358704,216.435410 44.197708,212.527130 
	C43.956287,206.666275 44.134918,200.788116 44.134918,193.490585 
	C48.051327,198.096939 51.114952,201.358154 53.738075,204.941818 
	C54.904469,206.535294 55.679581,208.755112 55.774788,210.731934 
	C56.123474,217.972015 55.987751,217.978546 63.268265,217.977951 
	C63.933884,217.977905 64.611565,217.895493 65.263184,217.990967 
	C69.830933,218.660278 70.932716,216.384109 70.868324,212.218201 
	C70.680611,200.073563 70.801865,187.924149 70.801193,174.841766 
M179.866150,197.499405 
	C179.866150,200.997787 179.805283,204.497421 179.877335,207.994324 
	C180.113800,219.472351 177.731720,217.747757 190.440536,218.022858 
	C193.783417,218.095230 194.898697,216.659454 194.816681,213.568329 
	C194.721786,209.991806 194.794586,206.410812 194.794586,202.975281 
	C206.694031,201.460602 206.798004,201.546417 206.866272,212.140747 
	C206.870560,212.807083 206.908432,213.475723 206.867630,214.139404 
	C206.702866,216.818222 207.739182,218.057983 210.625885,218.012772 
	C224.411453,217.796890 221.679031,219.477005 221.977036,207.174698 
	C222.131531,200.796555 222.601303,194.285141 214.901230,191.635864 
	C218.906296,185.838882 218.351410,180.165756 215.733185,174.717438 
	C213.517120,170.106003 208.834320,170.082108 204.468903,170.040405 
	C197.805908,169.976730 191.136429,170.184067 184.480453,169.958878 
	C181.000488,169.841156 179.728592,171.012878 179.814636,174.511139 
	C179.994858,181.836639 179.867310,189.169708 179.866150,197.499405 
M328.977356,205.600861 
	C329.065948,204.149506 329.154510,202.698166 329.250153,201.131271 
	C332.957642,201.131271 336.348511,201.131271 340.198792,201.131271 
	C340.198792,203.417664 340.201263,205.379395 340.198395,207.341110 
	C340.180023,219.960983 339.630920,217.665680 350.891418,218.033997 
	C354.429108,218.149719 355.541504,216.837372 355.498169,213.418518 
	C355.358887,202.428528 355.488007,191.435455 355.439880,180.443893 
	C355.387054,168.379181 356.667664,170.252884 344.585510,169.980042 
	C341.259460,169.904922 340.118530,171.354355 340.184387,174.442856 
	C340.268616,178.392273 340.204834,182.344849 340.204834,186.555695 
	C336.233856,186.555695 332.846252,186.555695 328.977203,186.555695 
	C328.977203,184.292191 329.016632,182.332016 328.970734,180.373856 
	C328.687958,168.303345 331.300323,170.232834 317.782135,169.999786 
	C314.660553,169.945953 313.817017,171.427658 313.834686,174.287247 
	C313.916046,187.443558 313.935455,200.601212 313.824921,213.757095 
	C313.797516,217.021530 315.013641,218.096344 318.242340,218.028931 
	C330.984650,217.762863 328.745850,219.386856 328.976379,207.565186 
	C328.982849,207.232224 328.977234,206.899033 328.977356,205.600861 
M166.585480,215.120239 
	C170.628601,212.162491 170.678848,207.704910 170.761139,203.399429 
	C170.907501,195.742859 170.790649,188.081467 170.807907,180.422150 
	C170.835861,168.023758 171.190643,170.345932 160.381073,169.959656 
	C156.789993,169.831314 155.752136,171.221466 155.814117,174.599442 
	C155.966827,182.921982 155.750534,191.251358 155.907227,199.573776 
	C155.986740,203.797318 154.799149,206.143143 150.030014,206.085800 
	C145.501358,206.031326 144.340546,203.765930 144.422531,199.775528 
	C144.555878,193.284485 144.488632,186.788483 144.448959,180.294922 
	C144.376602,168.451736 145.710663,170.215195 133.445404,169.986496 
	C130.447678,169.930603 129.182053,171.149124 129.191666,174.076599 
	C129.227249,184.899414 129.086914,195.724518 129.270538,206.544388 
	C129.356979,211.638000 131.819153,215.566269 136.909958,217.071274 
	C146.735703,219.976105 156.511978,220.346512 166.585480,215.120239 
M269.022919,212.413818 
	C268.389465,216.774063 270.166931,218.400787 274.615295,218.057083 
	C279.252167,217.698837 283.938263,217.977310 288.602814,217.977295 
	C304.082886,217.977203 307.701904,213.863937 306.392090,198.400024 
	C305.926514,192.902863 303.201965,189.831070 298.024750,188.764389 
	C294.609589,188.060745 291.105194,187.770721 287.713867,186.981354 
	C286.522644,186.704071 285.549225,185.491058 284.476349,184.705338 
	C285.600647,184.071930 286.697113,182.959229 287.854279,182.892029 
	C291.839325,182.660645 295.845734,182.813492 299.843689,182.782974 
	C302.675323,182.761353 304.169617,181.448868 303.991150,178.460098 
	C303.891998,176.799973 304.436005,174.929382 303.833496,173.519852 
	C303.233826,172.116974 301.646423,170.311829 300.345154,170.184433 
	C296.054749,169.764404 291.697845,170.022995 287.366455,170.022888 
	C271.262329,170.022537 268.499359,172.894516 269.025269,189.085892 
	C269.207581,194.698181 271.364563,197.672684 276.882751,199.062729 
	C280.576660,199.993240 284.434052,200.260544 288.159943,201.087494 
	C289.226807,201.324249 290.090240,202.477646 291.046936,203.210724 
	C289.986511,203.973145 288.963257,205.324356 287.859100,205.394043 
	C283.544159,205.666336 279.189972,205.755035 274.876282,205.490204 
	C270.338440,205.211609 268.240723,206.823517 269.022919,212.413818 
M235.315811,205.172638 
	C228.578674,205.283600 227.191223,207.111069 228.739334,214.752243 
	C228.992676,216.002655 230.937302,217.789017 232.146545,217.826324 
	C240.787567,218.092865 249.442078,218.047913 258.088135,217.882828 
	C259.305267,217.859573 261.112091,216.941650 261.602722,215.931259 
	C264.301086,210.374023 261.376312,205.509537 255.397202,205.177109 
	C254.752457,205.141266 254.113022,205.009567 253.277374,204.896011 
	C253.277374,197.568771 253.277374,190.334290 253.277374,183.023743 
	C254.558929,182.936737 255.564636,182.715012 256.531342,182.827728 
	C262.796478,183.558289 261.780518,179.194778 262.041321,175.377197 
	C262.327393,171.188583 260.712616,169.790283 256.582764,169.951447 
	C249.773544,170.217102 242.946396,170.022598 236.126816,170.023254 
	C228.394012,170.024002 228.574097,170.026886 228.478210,177.537048 
	C228.429184,181.378876 229.707550,183.132568 233.619293,182.830078 
	C234.739426,182.743469 235.887650,183.019958 237.547806,183.180801 
	C237.547806,189.116074 237.636917,194.910080 237.485977,200.697830 
	C237.447601,202.169785 236.646545,203.621857 235.315811,205.172638 
z"/>
<path fill="#010102" opacity="1.000000" stroke="none" 
	d="
M112.153343,217.416443 
	C104.396065,217.713898 96.904991,218.608475 89.630005,217.724579 
	C82.361732,216.841476 79.605713,213.145630 79.318977,205.821030 
	C79.000648,197.689026 79.126991,189.515152 79.558136,181.385956 
	C79.905434,174.837753 82.673447,171.125732 88.997681,170.349411 
	C96.145981,169.471939 103.563637,169.401260 110.707611,170.268829 
	C117.762993,171.125656 120.854332,175.690613 120.950676,182.868042 
	C121.053421,190.521896 121.089012,198.180801 120.927788,205.832733 
	C120.794266,212.170044 118.492165,215.075974 112.153343,217.416443 
M97.900627,182.066666 
	C96.763893,183.228470 94.717995,184.336884 94.646103,185.561218 
	C94.315666,191.188675 94.348862,196.857590 94.622055,202.493668 
	C94.821632,206.611008 98.210007,206.118301 100.993103,206.082565 
	C103.710136,206.047714 105.948982,205.376587 105.884201,201.902939 
	C105.803650,197.583786 105.877350,193.261902 105.869041,188.941223 
	C105.856346,182.337540 105.585236,182.078186 97.900627,182.066666 
z"/>
<path fill="#010102" opacity="1.000000" stroke="none" 
	d="
M70.801590,175.309174 
	C70.801865,187.924149 70.680611,200.073563 70.868324,212.218201 
	C70.932716,216.384109 69.830933,218.660278 65.263184,217.990967 
	C64.611565,217.895493 63.933884,217.977905 63.268265,217.977951 
	C55.987751,217.978546 56.123474,217.972015 55.774788,210.731934 
	C55.679581,208.755112 54.904469,206.535294 53.738075,204.941818 
	C51.114952,201.358154 48.051327,198.096939 44.134918,193.490585 
	C44.134918,200.788116 43.956287,206.666275 44.197708,212.527130 
	C44.358704,216.435410 43.440723,218.271500 38.993095,218.069153 
	C29.268888,217.626724 29.531046,219.601334 29.545216,208.651947 
	C29.558565,198.334869 29.424288,188.015198 29.636393,177.702469 
	C29.688507,175.168579 30.558706,170.623215 31.529551,170.490524 
	C35.555527,169.940231 40.145714,168.509079 43.600227,172.604370 
	C47.229454,176.906769 51.055725,181.042969 55.867256,186.457413 
	C55.867256,181.591843 56.034523,178.069321 55.820431,174.570129 
	C55.604301,171.037613 57.088795,169.715866 60.493591,169.997345 
	C62.311584,170.147629 64.167564,170.174393 65.979538,169.991196 
	C69.682899,169.616760 71.295258,171.135452 70.801590,175.309174 
z"/>
<path fill="#000001" opacity="1.000000" stroke="none" 
	d="
M179.866150,196.999542 
	C179.867310,189.169708 179.994858,181.836639 179.814636,174.511139 
	C179.728592,171.012878 181.000488,169.841156 184.480453,169.958878 
	C191.136429,170.184067 197.805908,169.976730 204.468903,170.040405 
	C208.834320,170.082108 213.517120,170.106003 215.733185,174.717438 
	C218.351410,180.165756 218.906296,185.838882 214.901230,191.635864 
	C222.601303,194.285141 222.131531,200.796555 221.977036,207.174698 
	C221.679031,219.477005 224.411453,217.796890 210.625885,218.012772 
	C207.739182,218.057983 206.702866,216.818222 206.867630,214.139404 
	C206.908432,213.475723 206.870560,212.807083 206.866272,212.140747 
	C206.798004,201.546417 206.694031,201.460602 194.794586,202.975281 
	C194.794586,206.410812 194.721786,209.991806 194.816681,213.568329 
	C194.898697,216.659454 193.783417,218.095230 190.440536,218.022858 
	C177.731720,217.747757 180.113800,219.472351 179.877335,207.994324 
	C179.805283,204.497421 179.866150,200.997787 179.866150,196.999542 
M196.974396,190.526947 
	C200.584671,190.794800 203.482285,190.046402 202.810867,185.523041 
	C202.038071,180.316818 198.216339,182.231949 194.204498,182.233994 
	C194.960297,185.268539 195.601639,187.843567 196.974396,190.526947 
z"/>
<path fill="#010102" opacity="1.000000" stroke="none" 
	d="
M328.977295,206.083405 
	C328.977234,206.899033 328.982849,207.232224 328.976379,207.565186 
	C328.745850,219.386856 330.984650,217.762863 318.242340,218.028931 
	C315.013641,218.096344 313.797516,217.021530 313.824921,213.757095 
	C313.935455,200.601212 313.916046,187.443558 313.834686,174.287247 
	C313.817017,171.427658 314.660553,169.945953 317.782135,169.999786 
	C331.300323,170.232834 328.687958,168.303345 328.970734,180.373856 
	C329.016632,182.332016 328.977203,184.292191 328.977203,186.555695 
	C332.846252,186.555695 336.233856,186.555695 340.204834,186.555695 
	C340.204834,182.344849 340.268616,178.392273 340.184387,174.442856 
	C340.118530,171.354355 341.259460,169.904922 344.585510,169.980042 
	C356.667664,170.252884 355.387054,168.379181 355.439880,180.443893 
	C355.488007,191.435455 355.358887,202.428528 355.498169,213.418518 
	C355.541504,216.837372 354.429108,218.149719 350.891418,218.033997 
	C339.630920,217.665680 340.180023,219.960983 340.198395,207.341110 
	C340.201263,205.379395 340.198792,203.417664 340.198792,201.131271 
	C336.348511,201.131271 332.957642,201.131271 329.250153,201.131271 
	C329.154510,202.698166 329.065948,204.149506 328.977295,206.083405 
z"/>
<path fill="#010103" opacity="1.000000" stroke="none" 
	d="
M166.289093,215.368256 
	C156.511978,220.346512 146.735703,219.976105 136.909958,217.071274 
	C131.819153,215.566269 129.356979,211.638000 129.270538,206.544388 
	C129.086914,195.724518 129.227249,184.899414 129.191666,174.076599 
	C129.182053,171.149124 130.447678,169.930603 133.445404,169.986496 
	C145.710663,170.215195 144.376602,168.451736 144.448959,180.294922 
	C144.488632,186.788483 144.555878,193.284485 144.422531,199.775528 
	C144.340546,203.765930 145.501358,206.031326 150.030014,206.085800 
	C154.799149,206.143143 155.986740,203.797318 155.907227,199.573776 
	C155.750534,191.251358 155.966827,182.921982 155.814117,174.599442 
	C155.752136,171.221466 156.789993,169.831314 160.381073,169.959656 
	C171.190643,170.345932 170.835861,168.023758 170.807907,180.422150 
	C170.790649,188.081467 170.907501,195.742859 170.761139,203.399429 
	C170.678848,207.704910 170.628601,212.162491 166.289093,215.368256 
z"/>
<path fill="#010102" opacity="1.000000" stroke="none" 
	d="
M269.022888,211.953766 
	C268.240723,206.823517 270.338440,205.211609 274.876282,205.490204 
	C279.189972,205.755035 283.544159,205.666336 287.859100,205.394043 
	C288.963257,205.324356 289.986511,203.973145 291.046936,203.210724 
	C290.090240,202.477646 289.226807,201.324249 288.159943,201.087494 
	C284.434052,200.260544 280.576660,199.993240 276.882751,199.062729 
	C271.364563,197.672684 269.207581,194.698181 269.025269,189.085892 
	C268.499359,172.894516 271.262329,170.022537 287.366455,170.022888 
	C291.697845,170.022995 296.054749,169.764404 300.345154,170.184433 
	C301.646423,170.311829 303.233826,172.116974 303.833496,173.519852 
	C304.436005,174.929382 303.891998,176.799973 303.991150,178.460098 
	C304.169617,181.448868 302.675323,182.761353 299.843689,182.782974 
	C295.845734,182.813492 291.839325,182.660645 287.854279,182.892029 
	C286.697113,182.959229 285.600647,184.071930 284.476349,184.705338 
	C285.549225,185.491058 286.522644,186.704071 287.713867,186.981354 
	C291.105194,187.770721 294.609589,188.060745 298.024750,188.764389 
	C303.201965,189.831070 305.926514,192.902863 306.392090,198.400024 
	C307.701904,213.863937 304.082886,217.977203 288.602814,217.977295 
	C283.938263,217.977310 279.252167,217.698837 274.615295,218.057083 
	C270.166931,218.400787 268.389465,216.774063 269.022888,211.953766 
z"/>
<path fill="#000102" opacity="1.000000" stroke="none" 
	d="
M235.755859,205.127838 
	C236.646545,203.621857 237.447601,202.169785 237.485977,200.697830 
	C237.636917,194.910080 237.547806,189.116074 237.547806,183.180801 
	C235.887650,183.019958 234.739426,182.743469 233.619293,182.830078 
	C229.707550,183.132568 228.429184,181.378876 228.478210,177.537048 
	C228.574097,170.026886 228.394012,170.024002 236.126816,170.023254 
	C242.946396,170.022598 249.773544,170.217102 256.582764,169.951447 
	C260.712616,169.790283 262.327393,171.188583 262.041321,175.377197 
	C261.780518,179.194778 262.796478,183.558289 256.531342,182.827728 
	C255.564636,182.715012 254.558929,182.936737 253.277374,183.023743 
	C253.277374,190.334290 253.277374,197.568771 253.277374,204.896011 
	C254.113022,205.009567 254.752457,205.141266 255.397202,205.177109 
	C261.376312,205.509537 264.301086,210.374023 261.602722,215.931259 
	C261.112091,216.941650 259.305267,217.859573 258.088135,217.882828 
	C249.442078,218.047913 240.787567,218.092865 232.146545,217.826324 
	C230.937302,217.789017 228.992676,216.002655 228.739334,214.752243 
	C227.191223,207.111069 228.578674,205.283600 235.755859,205.127838 
z"/>
<path fill="#4146D0" opacity="1.000000" stroke="none" 
	d="
M98.328217,182.028671 
	C105.585236,182.078186 105.856346,182.337540 105.869041,188.941223 
	C105.877350,193.261902 105.803650,197.583786 105.884201,201.902939 
	C105.948982,205.376587 103.710136,206.047714 100.993103,206.082565 
	C98.210007,206.118301 94.821632,206.611008 94.622055,202.493668 
	C94.348862,196.857590 94.315666,191.188675 94.646103,185.561218 
	C94.717995,184.336884 96.763893,183.228470 98.328217,182.028671 
z"/>
<path fill="#4046CF" opacity="1.000000" stroke="none" 
	d="
M196.608688,190.472778 
	C195.601639,187.843567 194.960297,185.268539 194.204498,182.233994 
	C198.216339,182.231949 202.038071,180.316818 202.810867,185.523041 
	C203.482285,190.046402 200.584671,190.794800 196.608688,190.472778 
z"/>
</svg>