<?xml version="1.0" encoding="UTF-8"?>
<svg xmlns="http://www.w3.org/2000/svg" xmlns:xlink="http://www.w3.org/1999/xlink" width="512px" height="515px" viewBox="0 0 512 514" version="1.1">
<g id="surface1">
<path style=" stroke:none;fill-rule:nonzero;fill:rgb(0%,0%,0%);fill-opacity:1;" d="M 473.871094 515.359375 C 315.914062 515.359375 158.636719 515.359375 1.363281 515.359375 C 1.363281 344.027344 1.363281 172.691406 1.363281 1.359375 C 172.027344 1.359375 342.695312 1.359375 513.363281 1.359375 C 513.363281 172.691406 513.363281 344.027344 513.363281 515.359375 C 500.425781 515.359375 487.488281 515.359375 473.871094 515.359375 M 358.808594 300.386719 C 401.121094 300.386719 443.433594 300.386719 485.953125 300.386719 C 485.953125 275.585938 485.953125 251.644531 485.953125 227.46875 C 336.5625 227.46875 187.578125 227.46875 38.453125 227.46875 C 38.453125 251.824219 38.453125 275.921875 38.453125 300.386719 C 145.160156 300.386719 251.300781 300.386719 358.808594 300.386719 Z M 358.808594 300.386719 "/>
<path style=" stroke:none;fill-rule:nonzero;fill:rgb(25.490198%,27.843139%,82.352942%);fill-opacity:1;" d="M 358.128906 300.386719 C 251.300781 300.386719 145.160156 300.386719 38.453125 300.386719 C 38.453125 275.921875 38.453125 251.824219 38.453125 227.46875 C 187.578125 227.46875 336.5625 227.46875 485.953125 227.46875 C 485.953125 251.644531 485.953125 275.585938 485.953125 300.386719 C 443.433594 300.386719 401.121094 300.386719 358.128906 300.386719 M 153.210938 295.390625 C 161.351562 292.457031 164.484375 288.507812 164.667969 279.890625 C 164.886719 269.484375 164.839844 259.070312 164.699219 248.660156 C 164.566406 238.902344 160.359375 232.695312 150.75 231.53125 C 141.023438 230.351562 130.921875 230.445312 121.1875 231.640625 C 112.578125 232.695312 108.808594 237.742188 108.335938 246.648438 C 107.746094 257.699219 107.574219 268.816406 108.007812 279.871094 C 108.398438 289.832031 112.152344 294.859375 122.050781 296.058594 C 131.957031 297.261719 142.15625 296.042969 153.210938 295.390625 M 96.410156 237.746094 C 97.082031 232.707031 94.886719 230.644531 89.84375 231.152344 C 87.378906 231.402344 84.851562 231.363281 82.375 231.160156 C 77.738281 230.777344 75.714844 232.574219 76.011719 237.378906 C 76.300781 242.136719 76.074219 246.925781 76.074219 253.542969 C 69.523438 246.179688 64.3125 240.554688 59.371094 234.707031 C 54.667969 229.136719 48.417969 231.082031 42.933594 231.832031 C 41.613281 232.011719 40.425781 238.191406 40.355469 241.636719 C 40.066406 255.660156 40.25 269.695312 40.230469 283.722656 C 40.210938 298.613281 39.855469 295.925781 53.097656 296.527344 C 59.152344 296.804688 60.402344 294.304688 60.183594 288.992188 C 59.855469 281.023438 60.097656 273.03125 60.097656 263.105469 C 65.429688 269.371094 69.601562 273.804688 73.175781 278.675781 C 74.761719 280.84375 75.820312 283.863281 75.949219 286.550781 C 76.421875 296.394531 76.238281 296.40625 86.152344 296.402344 C 87.058594 296.402344 87.980469 296.292969 88.867188 296.421875 C 95.089844 297.332031 96.589844 294.238281 96.5 288.570312 C 96.246094 272.058594 96.410156 255.535156 96.410156 237.746094 M 244.925781 268.558594 C 244.925781 273.3125 244.839844 278.074219 244.9375 282.828125 C 245.261719 298.4375 242.019531 296.089844 259.324219 296.464844 C 263.875 296.5625 265.394531 294.609375 265.28125 290.40625 C 265.152344 285.542969 265.253906 280.675781 265.253906 276.003906 C 281.457031 273.945312 281.597656 274.058594 281.691406 288.464844 C 281.695312 289.371094 281.746094 290.28125 281.691406 291.183594 C 281.46875 294.828125 282.878906 296.511719 286.808594 296.453125 C 305.582031 296.15625 301.859375 298.441406 302.265625 281.714844 C 302.476562 273.039062 303.117188 264.1875 292.632812 260.585938 C 298.085938 252.703125 297.328125 244.988281 293.765625 237.578125 C 290.746094 231.308594 284.371094 231.277344 278.425781 231.21875 C 269.351562 231.132812 260.269531 231.414062 251.207031 231.109375 C 246.46875 230.949219 244.738281 232.542969 244.855469 237.296875 C 245.097656 247.257812 244.925781 257.230469 244.925781 268.558594 M 447.96875 279.574219 C 448.089844 277.601562 448.210938 275.625 448.339844 273.496094 C 453.390625 273.496094 458.007812 273.496094 463.25 273.496094 C 463.25 276.605469 463.253906 279.273438 463.25 281.941406 C 463.222656 299.101562 462.476562 295.980469 477.808594 296.480469 C 482.625 296.636719 484.140625 294.851562 484.082031 290.203125 C 483.894531 275.261719 484.070312 260.3125 484.003906 245.367188 C 483.929688 228.960938 485.675781 231.507812 469.222656 231.136719 C 464.695312 231.035156 463.140625 233.003906 463.230469 237.207031 C 463.34375 242.574219 463.257812 247.949219 463.257812 253.675781 C 457.851562 253.675781 453.238281 253.675781 447.96875 253.675781 C 447.96875 250.597656 448.023438 247.933594 447.960938 245.269531 C 447.574219 228.855469 451.132812 231.480469 432.722656 231.164062 C 428.472656 231.089844 427.324219 233.105469 427.347656 236.992188 C 427.460938 254.882812 427.488281 272.773438 427.335938 290.664062 C 427.296875 295.101562 428.953125 296.566406 433.351562 296.472656 C 450.703125 296.113281 447.652344 298.320312 447.96875 282.246094 C 447.976562 281.792969 447.96875 281.339844 447.96875 279.574219 M 226.839844 292.519531 C 232.34375 288.496094 232.414062 282.433594 232.527344 276.582031 C 232.726562 266.167969 232.566406 255.75 232.589844 245.335938 C 232.628906 228.476562 233.109375 231.632812 218.390625 231.109375 C 213.5 230.933594 212.089844 232.824219 212.171875 237.417969 C 212.378906 248.734375 212.085938 260.0625 212.300781 271.378906 C 212.40625 277.121094 210.789062 280.3125 204.296875 280.234375 C 198.128906 280.160156 196.550781 277.078125 196.660156 271.652344 C 196.84375 262.824219 196.75 253.992188 196.695312 245.164062 C 196.597656 229.058594 198.414062 231.457031 181.710938 231.144531 C 177.632812 231.070312 175.90625 232.726562 175.921875 236.707031 C 175.96875 251.425781 175.777344 266.144531 176.027344 280.855469 C 176.144531 287.78125 179.5 293.125 186.429688 295.171875 C 199.808594 299.121094 213.121094 299.625 226.839844 292.519531 M 366.328125 288.835938 C 365.464844 294.765625 367.886719 296.980469 373.945312 296.511719 C 380.257812 296.023438 386.640625 296.402344 392.992188 296.402344 C 414.070312 296.402344 419 290.808594 417.214844 269.78125 C 416.582031 262.308594 412.871094 258.128906 405.820312 256.679688 C 401.171875 255.722656 396.398438 255.328125 391.78125 254.253906 C 390.160156 253.878906 388.832031 252.230469 387.371094 251.160156 C 388.902344 250.300781 390.394531 248.785156 391.972656 248.695312 C 397.398438 248.378906 402.855469 248.585938 408.296875 248.546875 C 412.152344 248.515625 414.1875 246.730469 413.945312 242.667969 C 413.808594 240.410156 414.550781 237.867188 413.730469 235.949219 C 412.914062 234.042969 410.753906 231.589844 408.980469 231.414062 C 403.136719 230.84375 397.207031 231.195312 391.308594 231.195312 C 369.378906 231.195312 365.617188 235.101562 366.332031 257.117188 C 366.582031 264.75 369.519531 268.792969 377.03125 270.683594 C 382.0625 271.949219 387.316406 272.3125 392.386719 273.4375 C 393.839844 273.757812 395.015625 275.328125 396.320312 276.324219 C 394.875 277.359375 393.480469 279.199219 391.976562 279.292969 C 386.101562 279.664062 380.171875 279.785156 374.300781 279.421875 C 368.121094 279.042969 365.265625 281.234375 366.328125 288.835938 M 320.429688 278.992188 C 311.257812 279.140625 309.367188 281.628906 311.476562 292.019531 C 311.820312 293.71875 314.46875 296.148438 316.113281 296.199219 C 327.882812 296.558594 339.664062 296.5 351.4375 296.273438 C 353.097656 296.242188 355.558594 294.996094 356.226562 293.621094 C 359.898438 286.0625 355.917969 279.449219 347.773438 278.996094 C 346.898438 278.949219 346.027344 278.769531 344.886719 278.613281 C 344.886719 268.652344 344.886719 258.8125 344.886719 248.875 C 346.632812 248.753906 348.003906 248.453125 349.320312 248.605469 C 357.851562 249.601562 356.46875 243.667969 356.820312 238.476562 C 357.210938 232.78125 355.011719 230.878906 349.390625 231.097656 C 340.117188 231.460938 330.820312 231.195312 321.535156 231.195312 C 311.003906 231.195312 311.25 231.199219 311.121094 241.414062 C 311.050781 246.636719 312.792969 249.023438 318.121094 248.609375 C 319.644531 248.492188 321.207031 248.867188 323.46875 249.085938 C 323.46875 257.15625 323.589844 265.035156 323.386719 272.90625 C 323.332031 274.90625 322.242188 276.882812 320.429688 278.992188 Z M 320.429688 278.992188 "/>
<path style=" stroke:none;fill-rule:nonzero;fill:rgb(0.392157%,0.392157%,0.784314%);fill-opacity:1;" d="M 152.71875 295.640625 C 142.15625 296.042969 131.957031 297.261719 122.050781 296.058594 C 112.152344 294.859375 108.398438 289.832031 108.007812 279.871094 C 107.574219 268.816406 107.746094 257.699219 108.335938 246.648438 C 108.808594 237.742188 112.578125 232.695312 121.1875 231.640625 C 130.921875 230.445312 141.023438 230.351562 150.75 231.53125 C 160.359375 232.695312 164.566406 238.902344 164.699219 248.660156 C 164.839844 259.070312 164.886719 269.484375 164.667969 279.890625 C 164.484375 288.507812 161.351562 292.457031 152.71875 295.640625 M 133.3125 247.570312 C 131.761719 249.152344 128.976562 250.660156 128.878906 252.324219 C 128.429688 259.976562 128.476562 267.683594 128.847656 275.347656 C 129.117188 280.945312 133.734375 280.277344 137.523438 280.230469 C 141.222656 280.179688 144.269531 279.269531 144.183594 274.546875 C 144.074219 268.671875 144.171875 262.796875 144.160156 256.921875 C 144.144531 247.941406 143.777344 247.585938 133.3125 247.570312 Z M 133.3125 247.570312 "/>
<path style=" stroke:none;fill-rule:nonzero;fill:rgb(0.392157%,0.392157%,0.784314%);fill-opacity:1;" d="M 96.410156 238.382812 C 96.410156 255.535156 96.246094 272.058594 96.5 288.570312 C 96.589844 294.238281 95.089844 297.332031 88.867188 296.421875 C 87.980469 296.292969 87.058594 296.402344 86.152344 296.402344 C 76.238281 296.40625 76.421875 296.394531 75.949219 286.550781 C 75.820312 283.863281 74.761719 280.84375 73.175781 278.675781 C 69.601562 273.804688 65.429688 269.371094 60.097656 263.105469 C 60.097656 273.03125 59.855469 281.023438 60.183594 288.992188 C 60.402344 294.304688 59.152344 296.804688 53.097656 296.527344 C 39.855469 295.925781 40.210938 298.613281 40.230469 283.722656 C 40.25 269.695312 40.066406 255.660156 40.355469 241.636719 C 40.425781 238.191406 41.613281 232.011719 42.933594 231.832031 C 48.417969 231.082031 54.667969 229.136719 59.371094 234.707031 C 64.3125 240.554688 69.523438 246.179688 76.074219 253.542969 C 76.074219 246.925781 76.300781 242.136719 76.011719 237.378906 C 75.714844 232.574219 77.738281 230.777344 82.375 231.160156 C 84.851562 231.363281 87.378906 231.402344 89.84375 231.152344 C 94.886719 230.644531 97.082031 232.707031 96.410156 238.382812 Z M 96.410156 238.382812 "/>
<path style=" stroke:none;fill-rule:nonzero;fill:rgb(0%,0%,0.392157%);fill-opacity:1;" d="M 244.925781 267.878906 C 244.925781 257.230469 245.097656 247.257812 244.855469 237.296875 C 244.738281 232.542969 246.46875 230.949219 251.207031 231.109375 C 260.269531 231.414062 269.351562 231.132812 278.425781 231.21875 C 284.371094 231.277344 290.746094 231.308594 293.765625 237.578125 C 297.328125 244.988281 298.085938 252.703125 292.632812 260.585938 C 303.117188 264.1875 302.476562 273.039062 302.265625 281.714844 C 301.859375 298.441406 305.582031 296.15625 286.808594 296.453125 C 282.878906 296.511719 281.46875 294.828125 281.691406 291.183594 C 281.746094 290.28125 281.695312 289.371094 281.691406 288.464844 C 281.597656 274.058594 281.457031 273.945312 265.253906 276.003906 C 265.253906 280.675781 265.152344 285.542969 265.28125 290.40625 C 265.394531 294.609375 263.875 296.5625 259.324219 296.464844 C 242.019531 296.089844 245.261719 298.4375 244.9375 282.828125 C 244.839844 278.074219 244.925781 273.3125 244.925781 267.878906 M 268.21875 259.078125 C 273.136719 259.441406 277.082031 258.421875 276.167969 252.273438 C 275.117188 245.191406 269.910156 247.796875 264.449219 247.800781 C 265.476562 251.925781 266.351562 255.425781 268.21875 259.078125 Z M 268.21875 259.078125 "/>
<path style=" stroke:none;fill-rule:nonzero;fill:rgb(0.392157%,0.392157%,0.784314%);fill-opacity:1;" d="M 447.96875 280.230469 C 447.96875 281.339844 447.976562 281.792969 447.96875 282.246094 C 447.652344 298.320312 450.703125 296.113281 433.351562 296.472656 C 428.953125 296.566406 427.296875 295.101562 427.335938 290.664062 C 427.488281 272.773438 427.460938 254.882812 427.347656 236.992188 C 427.324219 233.105469 428.472656 231.089844 432.722656 231.164062 C 451.132812 231.480469 447.574219 228.855469 447.960938 245.269531 C 448.023438 247.933594 447.96875 250.597656 447.96875 253.675781 C 453.238281 253.675781 457.851562 253.675781 463.257812 253.675781 C 463.257812 247.949219 463.34375 242.574219 463.230469 237.207031 C 463.140625 233.003906 464.695312 231.035156 469.222656 231.136719 C 485.675781 231.507812 483.929688 228.960938 484.003906 245.367188 C 484.070312 260.3125 483.894531 275.261719 484.082031 290.203125 C 484.140625 294.851562 482.625 296.636719 477.808594 296.480469 C 462.476562 295.980469 463.222656 299.101562 463.25 281.941406 C 463.253906 279.273438 463.25 276.605469 463.25 273.496094 C 458.007812 273.496094 453.390625 273.496094 448.339844 273.496094 C 448.210938 275.625 448.089844 277.601562 447.96875 280.230469 Z M 447.96875 280.230469 "/>
<path style=" stroke:none;fill-rule:nonzero;fill:rgb(0.392157%,0.392157%,1.176471%);fill-opacity:1;" d="M 226.4375 292.855469 C 213.121094 299.625 199.808594 299.121094 186.429688 295.171875 C 179.5 293.125 176.144531 287.78125 176.027344 280.855469 C 175.777344 266.144531 175.96875 251.425781 175.921875 236.707031 C 175.90625 232.726562 177.632812 231.070312 181.710938 231.144531 C 198.414062 231.457031 196.597656 229.058594 196.695312 245.164062 C 196.75 253.992188 196.84375 262.824219 196.660156 271.652344 C 196.550781 277.078125 198.128906 280.160156 204.296875 280.234375 C 210.789062 280.3125 212.40625 277.121094 212.300781 271.378906 C 212.085938 260.0625 212.378906 248.734375 212.171875 237.417969 C 212.089844 232.824219 213.5 230.933594 218.390625 231.109375 C 233.109375 231.632812 232.628906 228.476562 232.589844 245.335938 C 232.566406 255.75 232.726562 266.167969 232.527344 276.582031 C 232.414062 282.433594 232.34375 288.496094 226.4375 292.855469 Z M 226.4375 292.855469 "/>
<path style=" stroke:none;fill-rule:nonzero;fill:rgb(0.392157%,0.392157%,0.784314%);fill-opacity:1;" d="M 366.328125 288.210938 C 365.265625 281.234375 368.121094 279.042969 374.300781 279.421875 C 380.171875 279.785156 386.101562 279.664062 391.976562 279.292969 C 393.480469 279.199219 394.875 277.359375 396.320312 276.324219 C 395.015625 275.328125 393.839844 273.757812 392.386719 273.4375 C 387.316406 272.3125 382.0625 271.949219 377.03125 270.683594 C 369.519531 268.792969 366.582031 264.75 366.332031 257.117188 C 365.617188 235.101562 369.378906 231.195312 391.308594 231.195312 C 397.207031 231.195312 403.136719 230.84375 408.980469 231.414062 C 410.753906 231.589844 412.914062 234.042969 413.730469 235.949219 C 414.550781 237.867188 413.808594 240.410156 413.945312 242.667969 C 414.1875 246.730469 412.152344 248.515625 408.296875 248.546875 C 402.855469 248.585938 397.398438 248.378906 391.972656 248.695312 C 390.394531 248.785156 388.902344 250.300781 387.371094 251.160156 C 388.832031 252.230469 390.160156 253.878906 391.78125 254.253906 C 396.398438 255.328125 401.171875 255.722656 405.820312 256.679688 C 412.871094 258.128906 416.582031 262.308594 417.214844 269.78125 C 419 290.808594 414.070312 296.402344 392.992188 296.402344 C 386.640625 296.402344 380.257812 296.023438 373.945312 296.511719 C 367.886719 296.980469 365.464844 294.765625 366.328125 288.210938 Z M 366.328125 288.210938 "/>
<path style=" stroke:none;fill-rule:nonzero;fill:rgb(0%,0.392157%,0.784314%);fill-opacity:1;" d="M 321.027344 278.929688 C 322.242188 276.882812 323.332031 274.90625 323.386719 272.90625 C 323.589844 265.035156 323.46875 257.15625 323.46875 249.085938 C 321.207031 248.867188 319.644531 248.492188 318.121094 248.609375 C 312.792969 249.023438 311.050781 246.636719 311.121094 241.414062 C 311.25 231.199219 311.003906 231.195312 321.535156 231.195312 C 330.820312 231.195312 340.117188 231.460938 349.390625 231.097656 C 355.011719 230.878906 357.210938 232.78125 356.820312 238.476562 C 356.46875 243.667969 357.851562 249.601562 349.320312 248.605469 C 348.003906 248.453125 346.632812 248.753906 344.886719 248.875 C 344.886719 258.8125 344.886719 268.652344 344.886719 278.613281 C 346.027344 278.769531 346.898438 278.949219 347.773438 278.996094 C 355.917969 279.449219 359.898438 286.0625 356.226562 293.621094 C 355.558594 294.996094 353.097656 296.242188 351.4375 296.273438 C 339.664062 296.5 327.882812 296.558594 316.113281 296.199219 C 314.46875 296.148438 311.820312 293.71875 311.476562 292.019531 C 309.367188 281.628906 311.257812 279.140625 321.027344 278.929688 Z M 321.027344 278.929688 "/>
<path style=" stroke:none;fill-rule:nonzero;fill:rgb(25.490198%,27.450982%,81.568629%);fill-opacity:1;" d="M 133.894531 247.519531 C 143.777344 247.585938 144.144531 247.941406 144.160156 256.921875 C 144.171875 262.796875 144.074219 268.671875 144.183594 274.546875 C 144.269531 279.269531 141.222656 280.179688 137.523438 280.230469 C 133.734375 280.277344 129.117188 280.945312 128.847656 275.347656 C 128.476562 267.683594 128.429688 259.976562 128.878906 252.324219 C 128.976562 250.660156 131.761719 249.152344 133.894531 247.519531 Z M 133.894531 247.519531 "/>
<path style=" stroke:none;fill-rule:nonzero;fill:rgb(25.098041%,27.450982%,81.176472%);fill-opacity:1;" d="M 267.722656 259.003906 C 266.351562 255.425781 265.476562 251.925781 264.449219 247.800781 C 269.910156 247.796875 275.117188 245.191406 276.167969 252.273438 C 277.082031 258.421875 273.136719 259.441406 267.722656 259.003906 Z M 267.722656 259.003906 "/>
</g>
</svg>
