<?xml version="1.0" encoding="UTF-8"?>
<svg xmlns="http://www.w3.org/2000/svg" xmlns:xlink="http://www.w3.org/1999/xlink" width="192px" height="193px" viewBox="0 0 192 193" version="1.1">
<g id="surface1">
<path style=" stroke:none;fill-rule:nonzero;fill:rgb(0%,0%,0%);fill-opacity:1;" d="M 177.703125 193.511719 C 118.46875 193.511719 59.488281 193.511719 0.511719 193.511719 C 0.511719 129.175781 0.511719 64.84375 0.511719 0.511719 C 64.511719 0.511719 128.511719 0.511719 192.511719 0.511719 C 192.511719 64.84375 192.511719 129.175781 192.511719 193.511719 C 187.660156 193.511719 182.808594 193.511719 177.703125 193.511719 M 134.554688 112.789062 C 150.421875 112.789062 166.289062 112.789062 182.234375 112.789062 C 182.234375 103.480469 182.234375 94.488281 182.234375 85.410156 C 126.210938 85.410156 70.339844 85.410156 14.421875 85.410156 C 14.421875 94.558594 14.421875 103.605469 14.421875 112.789062 C 54.433594 112.789062 94.238281 112.789062 134.554688 112.789062 Z M 134.554688 112.789062 "/>
<path style=" stroke:none;fill-rule:nonzero;fill:rgb(25.490198%,27.843139%,82.352942%);fill-opacity:1;" d="M 134.296875 112.789062 C 94.238281 112.789062 54.433594 112.789062 14.421875 112.789062 C 14.421875 103.605469 14.421875 94.558594 14.421875 85.410156 C 70.339844 85.410156 126.210938 85.410156 182.234375 85.410156 C 182.234375 94.488281 182.234375 103.480469 182.234375 112.789062 C 166.289062 112.789062 150.421875 112.789062 134.296875 112.789062 M 57.453125 110.914062 C 60.507812 109.8125 61.683594 108.332031 61.75 105.09375 C 61.832031 101.1875 61.816406 97.277344 61.761719 93.367188 C 61.710938 89.703125 60.132812 87.375 56.53125 86.9375 C 52.882812 86.492188 49.097656 86.53125 45.445312 86.976562 C 42.214844 87.375 40.804688 89.269531 40.625 92.613281 C 40.40625 96.761719 40.339844 100.9375 40.503906 105.089844 C 40.648438 108.828125 42.058594 110.714844 45.769531 111.167969 C 49.484375 111.617188 53.308594 111.160156 57.453125 110.914062 M 36.152344 89.269531 C 36.40625 87.378906 35.582031 86.601562 33.691406 86.792969 C 32.765625 86.886719 31.820312 86.875 30.890625 86.796875 C 29.152344 86.652344 28.394531 87.328125 28.503906 89.132812 C 28.613281 90.917969 28.527344 92.71875 28.527344 95.203125 C 26.070312 92.4375 24.117188 90.324219 22.265625 88.128906 C 20.5 86.039062 18.15625 86.769531 16.101562 87.050781 C 15.605469 87.117188 15.160156 89.4375 15.132812 90.730469 C 15.023438 95.996094 15.09375 101.265625 15.085938 106.535156 C 15.078125 112.125 14.945312 111.117188 19.910156 111.34375 C 22.183594 111.445312 22.652344 110.507812 22.570312 108.511719 C 22.445312 105.519531 22.535156 102.519531 22.535156 98.792969 C 24.535156 101.144531 26.101562 102.808594 27.441406 104.640625 C 28.035156 105.453125 28.433594 106.585938 28.480469 107.597656 C 28.660156 111.292969 28.589844 111.296875 32.308594 111.296875 C 32.648438 111.296875 32.992188 111.253906 33.324219 111.300781 C 35.660156 111.644531 36.222656 110.480469 36.1875 108.355469 C 36.09375 102.152344 36.152344 95.949219 36.152344 89.269531 M 91.847656 100.839844 C 91.847656 102.625 91.816406 104.414062 91.851562 106.199219 C 91.972656 112.058594 90.757812 111.179688 97.246094 111.320312 C 98.953125 111.355469 99.523438 110.621094 99.480469 109.042969 C 99.433594 107.21875 99.46875 105.390625 99.46875 103.636719 C 105.546875 102.863281 105.597656 102.90625 105.632812 108.316406 C 105.636719 108.65625 105.65625 108.996094 105.632812 109.335938 C 105.550781 110.703125 106.078125 111.335938 107.554688 111.3125 C 114.59375 111.203125 113.199219 112.0625 113.351562 105.78125 C 113.429688 102.523438 113.667969 99.199219 109.738281 97.847656 C 111.78125 94.886719 111.5 91.988281 110.160156 89.207031 C 109.03125 86.851562 106.640625 86.839844 104.410156 86.820312 C 101.007812 86.785156 97.601562 86.894531 94.203125 86.777344 C 92.425781 86.71875 91.777344 87.316406 91.820312 89.101562 C 91.914062 92.84375 91.847656 96.585938 91.847656 100.839844 M 167.988281 104.976562 C 168.035156 104.234375 168.078125 103.492188 168.128906 102.695312 C 170.019531 102.695312 171.753906 102.695312 173.71875 102.695312 C 173.71875 103.863281 173.71875 104.863281 173.71875 105.863281 C 173.707031 112.308594 173.429688 111.136719 179.179688 111.324219 C 180.984375 111.382812 181.554688 110.714844 181.53125 108.96875 C 181.460938 103.355469 181.527344 97.742188 181.5 92.132812 C 181.472656 85.972656 182.128906 86.929688 175.957031 86.789062 C 174.261719 86.75 173.675781 87.492188 173.710938 89.066406 C 173.753906 91.082031 173.722656 93.101562 173.722656 95.253906 C 171.695312 95.253906 169.964844 95.253906 167.988281 95.253906 C 167.988281 94.097656 168.007812 93.09375 167.984375 92.09375 C 167.839844 85.933594 169.175781 86.917969 162.273438 86.800781 C 160.675781 86.769531 160.246094 87.527344 160.257812 88.988281 C 160.296875 95.707031 160.308594 102.421875 160.25 109.140625 C 160.238281 110.808594 160.859375 111.355469 162.507812 111.320312 C 169.011719 111.1875 167.871094 112.015625 167.988281 105.980469 C 167.992188 105.808594 167.988281 105.640625 167.988281 104.976562 M 85.066406 109.835938 C 87.128906 108.328125 87.15625 106.050781 87.195312 103.851562 C 87.273438 99.941406 87.210938 96.03125 87.222656 92.121094 C 87.234375 85.789062 87.417969 86.976562 81.898438 86.777344 C 80.0625 86.710938 79.53125 87.421875 79.566406 89.148438 C 79.644531 93.398438 79.53125 97.648438 79.613281 101.898438 C 79.652344 104.054688 79.046875 105.253906 76.609375 105.222656 C 74.296875 105.195312 73.707031 104.039062 73.746094 102 C 73.816406 98.6875 73.78125 95.371094 73.761719 92.054688 C 73.722656 86.007812 74.40625 86.910156 68.140625 86.792969 C 66.613281 86.761719 65.964844 87.386719 65.96875 88.878906 C 65.988281 94.40625 65.917969 99.933594 66.011719 105.457031 C 66.054688 108.058594 67.3125 110.0625 69.910156 110.832031 C 74.929688 112.316406 79.921875 112.503906 85.066406 109.835938 M 137.375 108.453125 C 137.050781 110.679688 137.957031 111.511719 140.230469 111.335938 C 142.597656 111.152344 144.988281 111.296875 147.371094 111.296875 C 155.277344 111.296875 157.125 109.195312 156.457031 101.300781 C 156.21875 98.492188 154.828125 96.925781 152.183594 96.378906 C 150.4375 96.019531 148.648438 95.871094 146.917969 95.46875 C 146.308594 95.328125 145.8125 94.707031 145.265625 94.308594 C 145.839844 93.984375 146.398438 93.414062 146.988281 93.382812 C 149.023438 93.261719 151.070312 93.339844 153.113281 93.324219 C 154.558594 93.316406 155.320312 92.644531 155.230469 91.117188 C 155.179688 90.269531 155.457031 89.316406 155.148438 88.597656 C 154.84375 87.878906 154.03125 86.957031 153.367188 86.894531 C 151.175781 86.679688 148.953125 86.8125 146.742188 86.8125 C 138.515625 86.808594 137.105469 88.277344 137.375 96.542969 C 137.46875 99.410156 138.570312 100.929688 141.386719 101.636719 C 143.273438 102.113281 145.242188 102.25 147.144531 102.671875 C 147.691406 102.792969 148.132812 103.382812 148.621094 103.753906 C 148.078125 104.144531 147.554688 104.835938 146.992188 104.871094 C 144.789062 105.007812 142.566406 105.054688 140.363281 104.917969 C 138.046875 104.777344 136.972656 105.601562 137.375 108.453125 M 120.160156 104.757812 C 116.722656 104.8125 116.011719 105.746094 116.804688 109.648438 C 116.933594 110.285156 117.925781 111.199219 118.542969 111.21875 C 122.957031 111.355469 127.375 111.332031 131.789062 111.246094 C 132.410156 111.234375 133.332031 110.765625 133.585938 110.25 C 134.960938 107.414062 133.46875 104.929688 130.414062 104.757812 C 130.085938 104.742188 129.761719 104.675781 129.332031 104.617188 C 129.332031 100.875 129.332031 97.179688 129.332031 93.449219 C 129.988281 93.402344 130.5 93.289062 130.996094 93.347656 C 134.195312 93.722656 133.675781 91.492188 133.808594 89.542969 C 133.953125 87.40625 133.128906 86.691406 131.019531 86.773438 C 127.542969 86.910156 124.058594 86.808594 120.574219 86.8125 C 116.625 86.8125 116.71875 86.8125 116.667969 90.648438 C 116.644531 92.609375 117.296875 93.503906 119.296875 93.351562 C 119.867188 93.304688 120.453125 93.445312 121.300781 93.527344 C 121.300781 96.558594 121.347656 99.519531 121.269531 102.472656 C 121.25 103.222656 120.839844 103.964844 120.160156 104.757812 Z M 120.160156 104.757812 "/>
<path style=" stroke:none;fill-rule:nonzero;fill:rgb(0.392157%,0.392157%,0.784314%);fill-opacity:1;" d="M 57.269531 111.007812 C 53.308594 111.160156 49.484375 111.617188 45.769531 111.167969 C 42.058594 110.714844 40.648438 108.828125 40.503906 105.089844 C 40.339844 100.9375 40.40625 96.761719 40.625 92.613281 C 40.804688 89.269531 42.214844 87.375 45.445312 86.976562 C 49.097656 86.53125 52.882812 86.492188 56.53125 86.9375 C 60.132812 87.375 61.710938 89.703125 61.761719 93.367188 C 61.816406 97.277344 61.832031 101.1875 61.75 105.09375 C 61.683594 108.332031 60.507812 109.8125 57.269531 111.007812 M 49.992188 92.960938 C 49.410156 93.554688 48.367188 94.117188 48.328125 94.746094 C 48.160156 97.617188 48.179688 100.511719 48.316406 103.390625 C 48.417969 105.492188 50.148438 105.242188 51.570312 105.222656 C 52.957031 105.203125 54.101562 104.863281 54.070312 103.089844 C 54.027344 100.882812 54.066406 98.675781 54.0625 96.46875 C 54.054688 93.097656 53.914062 92.964844 49.992188 92.960938 Z M 49.992188 92.960938 "/>
<path style=" stroke:none;fill-rule:nonzero;fill:rgb(0.392157%,0.392157%,0.784314%);fill-opacity:1;" d="M 36.152344 89.507812 C 36.152344 95.949219 36.09375 102.152344 36.1875 108.355469 C 36.222656 110.480469 35.660156 111.644531 33.324219 111.300781 C 32.992188 111.253906 32.648438 111.296875 32.308594 111.296875 C 28.589844 111.296875 28.660156 111.292969 28.480469 107.597656 C 28.433594 106.585938 28.035156 105.453125 27.441406 104.640625 C 26.101562 102.808594 24.535156 101.144531 22.535156 98.792969 C 22.535156 102.519531 22.445312 105.519531 22.570312 108.511719 C 22.652344 110.507812 22.183594 111.445312 19.910156 111.34375 C 14.945312 111.117188 15.078125 112.125 15.085938 106.535156 C 15.09375 101.265625 15.023438 95.996094 15.132812 90.730469 C 15.160156 89.4375 15.605469 87.117188 16.101562 87.050781 C 18.15625 86.769531 20.5 86.039062 22.265625 88.128906 C 24.117188 90.324219 26.070312 92.4375 28.527344 95.203125 C 28.527344 92.71875 28.613281 90.917969 28.503906 89.132812 C 28.394531 87.328125 29.152344 86.652344 30.890625 86.796875 C 31.820312 86.875 32.765625 86.886719 33.691406 86.792969 C 35.582031 86.601562 36.40625 87.378906 36.152344 89.507812 Z M 36.152344 89.507812 "/>
<path style=" stroke:none;fill-rule:nonzero;fill:rgb(0%,0%,0.392157%);fill-opacity:1;" d="M 91.847656 100.585938 C 91.847656 96.585938 91.914062 92.84375 91.820312 89.101562 C 91.777344 87.316406 92.425781 86.71875 94.203125 86.777344 C 97.601562 86.894531 101.007812 86.785156 104.410156 86.820312 C 106.640625 86.839844 109.03125 86.851562 110.160156 89.207031 C 111.5 91.988281 111.78125 94.886719 109.738281 97.847656 C 113.667969 99.199219 113.429688 102.523438 113.351562 105.78125 C 113.199219 112.0625 114.59375 111.203125 107.554688 111.3125 C 106.078125 111.335938 105.550781 110.703125 105.632812 109.335938 C 105.65625 108.996094 105.636719 108.65625 105.632812 108.316406 C 105.597656 102.90625 105.546875 102.863281 99.46875 103.636719 C 99.46875 105.390625 99.433594 107.21875 99.480469 109.042969 C 99.523438 110.621094 98.953125 111.355469 97.246094 111.320312 C 90.757812 111.179688 91.972656 112.058594 91.851562 106.199219 C 91.816406 104.414062 91.847656 102.625 91.847656 100.585938 M 100.582031 97.28125 C 102.425781 97.417969 103.90625 97.035156 103.5625 94.726562 C 103.167969 92.066406 101.21875 93.042969 99.167969 93.046875 C 99.554688 94.59375 99.882812 95.910156 100.582031 97.28125 Z M 100.582031 97.28125 "/>
<path style=" stroke:none;fill-rule:nonzero;fill:rgb(0.392157%,0.392157%,0.784314%);fill-opacity:1;" d="M 167.988281 105.222656 C 167.988281 105.640625 167.992188 105.808594 167.988281 105.980469 C 167.871094 112.015625 169.011719 111.1875 162.507812 111.320312 C 160.859375 111.355469 160.238281 110.808594 160.25 109.140625 C 160.308594 102.421875 160.296875 95.707031 160.257812 88.988281 C 160.246094 87.527344 160.675781 86.769531 162.273438 86.800781 C 169.175781 86.917969 167.839844 85.933594 167.984375 92.09375 C 168.007812 93.09375 167.988281 94.097656 167.988281 95.253906 C 169.964844 95.253906 171.695312 95.253906 173.722656 95.253906 C 173.722656 93.101562 173.753906 91.082031 173.710938 89.066406 C 173.675781 87.492188 174.261719 86.75 175.957031 86.789062 C 182.128906 86.929688 181.472656 85.972656 181.5 92.132812 C 181.527344 97.742188 181.460938 103.355469 181.53125 108.96875 C 181.554688 110.714844 180.984375 111.382812 179.179688 111.324219 C 173.429688 111.136719 173.707031 112.308594 173.71875 105.863281 C 173.71875 104.863281 173.71875 103.863281 173.71875 102.695312 C 171.753906 102.695312 170.019531 102.695312 168.128906 102.695312 C 168.078125 103.492188 168.035156 104.234375 167.988281 105.222656 Z M 167.988281 105.222656 "/>
<path style=" stroke:none;fill-rule:nonzero;fill:rgb(0.392157%,0.392157%,1.176471%);fill-opacity:1;" d="M 84.914062 109.964844 C 79.921875 112.503906 74.929688 112.316406 69.910156 110.832031 C 67.3125 110.0625 66.054688 108.058594 66.011719 105.457031 C 65.917969 99.933594 65.988281 94.40625 65.96875 88.878906 C 65.964844 87.386719 66.613281 86.761719 68.140625 86.792969 C 74.40625 86.910156 73.722656 86.007812 73.761719 92.054688 C 73.78125 95.371094 73.816406 98.6875 73.746094 102 C 73.707031 104.039062 74.296875 105.195312 76.609375 105.222656 C 79.046875 105.253906 79.652344 104.054688 79.613281 101.898438 C 79.53125 97.648438 79.644531 93.398438 79.566406 89.148438 C 79.53125 87.421875 80.0625 86.710938 81.898438 86.777344 C 87.417969 86.976562 87.234375 85.789062 87.222656 92.121094 C 87.210938 96.03125 87.273438 99.941406 87.195312 103.851562 C 87.15625 106.050781 87.128906 108.328125 84.914062 109.964844 Z M 84.914062 109.964844 "/>
<path style=" stroke:none;fill-rule:nonzero;fill:rgb(0.392157%,0.392157%,0.784314%);fill-opacity:1;" d="M 137.375 108.21875 C 136.972656 105.601562 138.046875 104.777344 140.363281 104.917969 C 142.566406 105.054688 144.789062 105.007812 146.992188 104.871094 C 147.554688 104.835938 148.078125 104.144531 148.621094 103.753906 C 148.132812 103.382812 147.691406 102.792969 147.144531 102.671875 C 145.242188 102.25 143.273438 102.113281 141.386719 101.636719 C 138.570312 100.929688 137.46875 99.410156 137.375 96.542969 C 137.105469 88.277344 138.515625 86.808594 146.742188 86.8125 C 148.953125 86.8125 151.175781 86.679688 153.367188 86.894531 C 154.03125 86.957031 154.84375 87.878906 155.148438 88.597656 C 155.457031 89.316406 155.179688 90.269531 155.230469 91.117188 C 155.320312 92.644531 154.558594 93.316406 153.113281 93.324219 C 151.070312 93.339844 149.023438 93.261719 146.988281 93.382812 C 146.398438 93.414062 145.839844 93.984375 145.265625 94.308594 C 145.8125 94.707031 146.308594 95.328125 146.917969 95.46875 C 148.648438 95.871094 150.4375 96.019531 152.183594 96.378906 C 154.828125 96.925781 156.21875 98.492188 156.457031 101.300781 C 157.125 109.195312 155.277344 111.296875 147.371094 111.296875 C 144.988281 111.296875 142.597656 111.152344 140.230469 111.335938 C 137.957031 111.511719 137.050781 110.679688 137.375 108.21875 Z M 137.375 108.21875 "/>
<path style=" stroke:none;fill-rule:nonzero;fill:rgb(0%,0.392157%,0.784314%);fill-opacity:1;" d="M 120.386719 104.734375 C 120.839844 103.964844 121.25 103.222656 121.269531 102.472656 C 121.347656 99.519531 121.300781 96.558594 121.300781 93.527344 C 120.453125 93.445312 119.867188 93.304688 119.296875 93.351562 C 117.296875 93.503906 116.644531 92.609375 116.667969 90.648438 C 116.71875 86.8125 116.625 86.8125 120.574219 86.8125 C 124.058594 86.808594 127.542969 86.910156 131.019531 86.773438 C 133.128906 86.691406 133.953125 87.40625 133.808594 89.542969 C 133.675781 91.492188 134.195312 93.722656 130.996094 93.347656 C 130.5 93.289062 129.988281 93.402344 129.332031 93.449219 C 129.332031 97.179688 129.332031 100.875 129.332031 104.617188 C 129.761719 104.675781 130.085938 104.742188 130.414062 104.757812 C 133.46875 104.929688 134.960938 107.414062 133.585938 110.25 C 133.332031 110.765625 132.410156 111.234375 131.789062 111.246094 C 127.375 111.332031 122.957031 111.355469 118.542969 111.21875 C 117.925781 111.199219 116.933594 110.285156 116.804688 109.648438 C 116.011719 105.746094 116.722656 104.8125 120.386719 104.734375 Z M 120.386719 104.734375 "/>
<path style=" stroke:none;fill-rule:nonzero;fill:rgb(25.490198%,27.450982%,81.568629%);fill-opacity:1;" d="M 50.210938 92.941406 C 53.914062 92.964844 54.054688 93.097656 54.0625 96.46875 C 54.066406 98.675781 54.027344 100.882812 54.070312 103.089844 C 54.101562 104.863281 52.957031 105.203125 51.570312 105.222656 C 50.148438 105.242188 48.417969 105.492188 48.316406 103.390625 C 48.179688 100.511719 48.160156 97.617188 48.328125 94.746094 C 48.367188 94.117188 49.410156 93.554688 50.210938 92.941406 Z M 50.210938 92.941406 "/>
<path style=" stroke:none;fill-rule:nonzero;fill:rgb(25.098041%,27.450982%,81.176472%);fill-opacity:1;" d="M 100.394531 97.253906 C 99.882812 95.910156 99.554688 94.59375 99.167969 93.046875 C 101.21875 93.042969 103.167969 92.066406 103.5625 94.726562 C 103.90625 97.035156 102.425781 97.417969 100.394531 97.253906 Z M 100.394531 97.253906 "/>
</g>
</svg>
