<?xml version="1.0" encoding="UTF-8"?>
<svg xmlns="http://www.w3.org/2000/svg" xmlns:xlink="http://www.w3.org/1999/xlink" width="512px" height="512px" viewBox="0 0 512 512" version="1.1">
<g id="surface1">
<path style=" stroke:none;fill-rule:nonzero;fill:rgb(0%,10.588235%,16.862746%);fill-opacity:1;" d="M 249.855469 513.023438 C 166.570312 513.023438 83.796875 513.023438 1.023438 513.023438 C 1.023438 342.355469 1.023438 171.691406 1.023438 1.023438 C 171.691406 1.023438 342.355469 1.023438 513.023438 1.023438 C 513.023438 171.691406 513.023438 342.355469 513.023438 513.023438 C 425.472656 513.023438 337.921875 513.023438 249.855469 513.023438 M 233.449219 162.304688 C 233.449219 155.136719 233.609375 147.964844 233.320312 140.808594 C 233.257812 139.253906 231.601562 137.757812 230.675781 136.234375 C 229.792969 137.785156 228.191406 139.320312 228.148438 140.898438 C 227.90625 150.105469 227.910156 159.324219 228.089844 168.535156 C 228.148438 171.738281 227.28125 173.667969 224.425781 175.5625 C 198.25 192.941406 189.589844 224.441406 202.90625 252.964844 C 211.960938 272.355469 234.324219 286.90625 253.597656 285.9375 C 255.089844 275.480469 255.109375 275.4375 246.042969 271.136719 C 238.546875 267.585938 233.554688 262.265625 233.480469 253.519531 C 233.378906 242.375 233.316406 231.226562 233.457031 220.082031 C 233.566406 211.199219 234.25 202.324219 234.242188 193.445312 C 234.234375 183.40625 233.734375 173.367188 233.449219 162.304688 M 316.566406 222.304688 C 315.300781 202.820312 306.425781 187.511719 290.511719 176.507812 C 286.742188 173.898438 285.515625 171.347656 285.65625 167.03125 C 285.949219 158.003906 285.839844 148.957031 285.621094 139.921875 C 285.59375 138.671875 284.015625 137.460938 283.152344 136.230469 C 282.242188 137.414062 281.234375 138.535156 280.46875 139.808594 C 280.167969 140.3125 280.410156 141.144531 280.410156 141.824219 C 280.421875 161.007812 280.503906 180.191406 280.40625 199.371094 C 280.378906 204.8125 279.558594 210.25 279.597656 215.6875 C 279.683594 227.972656 280.179688 240.257812 280.308594 252.546875 C 280.402344 261.339844 276 267.351562 268.078125 270.902344 C 266.0625 271.808594 263.921875 272.476562 262.011719 273.558594 C 260.996094 274.132812 259.738281 275.304688 259.648438 276.304688 C 259.351562 279.578125 259.535156 282.890625 259.535156 286.199219 C 293.28125 284.792969 318 257.074219 316.566406 222.304688 M 185.75 336.964844 C 193.929688 332.058594 196.941406 324.449219 193.960938 316.207031 C 191.496094 309.390625 184.121094 305.324219 176.699219 306.683594 C 167.25 308.417969 161.457031 317.441406 163.6875 326.9375 C 165.847656 336.125 174.371094 340.257812 185.75 336.964844 M 143.628906 325.097656 C 143.628906 319.203125 143.628906 313.308594 143.628906 307.058594 C 141.332031 307.179688 139.582031 307.269531 137.296875 307.386719 C 137.296875 313.292969 137.296875 318.734375 137.296875 325.554688 C 133.5 319.613281 130.699219 314.789062 127.414062 310.320312 C 126.144531 308.597656 123.773438 307.683594 121.019531 305.792969 C 121.019531 317.605469 121.019531 327.582031 121.019531 337.625 C 123 337.625 124.75 337.625 127.136719 337.625 C 127.136719 332.066406 127.136719 326.804688 127.136719 320.140625 C 130.859375 325.839844 133.859375 330.15625 136.558594 334.65625 C 138.265625 337.488281 140.167969 338.960938 143.628906 337.332031 C 143.628906 333.582031 143.628906 329.84375 143.628906 325.097656 M 387.132812 336.050781 C 388.898438 336.898438 390.664062 337.75 392.925781 338.839844 C 392.925781 327.449219 392.925781 317.367188 392.925781 307.40625 C 390.800781 307.40625 389.007812 307.40625 386.960938 307.40625 C 386.960938 311.464844 386.960938 315.1875 386.960938 318.929688 C 383.414062 318.929688 380.132812 318.929688 376.421875 318.929688 C 376.421875 314.890625 376.421875 311.195312 376.421875 307.363281 C 374.183594 307.363281 372.398438 307.363281 370.519531 307.363281 C 370.519531 317.621094 370.519531 327.609375 370.519531 337.652344 C 372.53125 337.652344 374.308594 337.652344 376.546875 337.652344 C 376.546875 333.324219 376.546875 329.296875 376.546875 325.109375 C 380.285156 325.109375 383.550781 325.109375 387.125 325.109375 C 387.125 328.644531 387.125 331.867188 387.132812 336.050781 M 237.917969 307.617188 C 235.847656 307.457031 233.777344 307.296875 231.492188 307.121094 C 231.492188 314.316406 231.867188 320.816406 231.269531 327.222656 C 231.082031 329.210938 228.503906 332.011719 226.558594 332.464844 C 225.011719 332.828125 222.386719 330.488281 220.964844 328.757812 C 220.078125 327.679688 220.421875 325.5 220.40625 323.8125 C 220.351562 318.269531 220.386719 312.726562 220.386719 307.277344 C 217.90625 307.277344 216.089844 307.277344 213.945312 307.277344 C 213.945312 313.40625 213.90625 319.332031 213.957031 325.253906 C 214.03125 333.878906 218.121094 338.398438 225.925781 338.574219 C 233.042969 338.738281 237.796875 333.941406 238.128906 325.820312 C 238.367188 320.042969 238.160156 314.25 237.917969 307.617188 M 279.710938 337.910156 C 279.730469 336.980469 280.042969 335.921875 279.714844 335.132812 C 278.214844 331.5625 276.53125 328.066406 274.980469 324.679688 C 279.78125 319.738281 280.882812 315.347656 278.558594 311.261719 C 276.015625 306.78125 268.007812 305.125 259.265625 307.304688 C 259.265625 317.417969 259.265625 327.546875 259.265625 337.964844 C 261.347656 337.871094 263.121094 337.792969 265.289062 337.699219 C 265.289062 333.652344 265.289062 329.988281 265.289062 326.042969 C 271.15625 325.796875 270.769531 330.816406 272.117188 333.667969 C 273.628906 336.875 275.171875 338.75 279.710938 337.910156 M 340.722656 319.359375 C 339.730469 319.128906 338.535156 319.164062 337.785156 318.605469 C 336.425781 317.597656 335.328125 316.234375 334.125 315.019531 C 335.738281 314.097656 337.375 312.390625 338.960938 312.433594 C 341.640625 312.507812 344.289062 313.691406 346.945312 314.410156 C 348.257812 308.351562 347.871094 307.582031 341.675781 306.738281 C 339.386719 306.429688 336.894531 306.636719 334.648438 307.210938 C 330.332031 308.316406 328.140625 311.511719 328.082031 315.867188 C 328.019531 320.308594 330.40625 323.25 334.65625 324.5 C 336.441406 325.023438 338.488281 324.863281 340.128906 325.628906 C 341.710938 326.371094 342.917969 327.902344 344.289062 329.089844 C 342.851562 330.300781 341.359375 332.59375 339.984375 332.523438 C 336.171875 332.328125 332.414062 331.148438 328.574219 330.347656 C 327.25 336.0625 327.65625 336.824219 333.914062 337.984375 C 335.902344 338.351562 337.992188 338.609375 339.984375 338.417969 C 346.332031 337.804688 350.015625 334.40625 350.363281 329.175781 C 350.734375 323.609375 348.671875 321.335938 340.722656 319.359375 M 265.105469 162.160156 C 265.09375 160.292969 265.402344 158.347656 264.960938 156.585938 C 264.667969 155.40625 263.3125 154.492188 262.429688 153.457031 C 261.507812 154.414062 259.808594 155.351562 259.785156 156.332031 C 259.570312 164.761719 259.660156 173.195312 259.660156 181.855469 C 264.941406 179.28125 269.742188 176.9375 274.3125 174.707031 C 276.484375 169.246094 273.46875 167.390625 268.898438 167.007812 C 266.253906 166.789062 264.648438 166.066406 265.105469 162.160156 M 254.046875 163.386719 C 254.039062 161.175781 254.367188 158.890625 253.910156 156.777344 C 253.628906 155.492188 252.132812 154.46875 251.183594 153.324219 C 250.359375 154.40625 249.09375 155.390625 248.8125 156.597656 C 248.402344 158.378906 248.554688 160.332031 248.726562 162.1875 C 249.011719 165.199219 248.296875 167.148438 244.777344 167.152344 C 243.625 167.152344 242.300781 167.433594 241.371094 168.058594 C 240.296875 168.78125 238.851562 170.042969 238.871094 171.042969 C 238.898438 172.5625 239.640625 174.78125 240.800781 175.4375 C 244.875 177.75 249.257812 179.523438 254.046875 181.738281 C 254.046875 175.808594 254.046875 170.097656 254.046875 163.386719 M 261.960938 267.574219 C 273.570312 262.78125 276.902344 256.976562 273.871094 246.816406 C 262.039062 250.847656 258.667969 255.25 259.558594 265.761719 C 259.625 266.523438 260.664062 267.203125 261.960938 267.574219 M 263.574219 223.207031 C 273.886719 218.335938 275.875 214.632812 274.332031 203.203125 C 262.957031 206.0625 259.09375 210.941406 259.527344 221.472656 C 259.640625 224.265625 260.503906 224.824219 263.574219 223.207031 M 266.21875 200.234375 C 274.277344 195.59375 276.578125 189.929688 273.90625 181.296875 C 261.300781 185.597656 257.535156 191.480469 260.410156 202.65625 C 262.136719 201.960938 263.839844 201.273438 266.21875 200.234375 M 274.746094 229.820312 C 274.746094 228.246094 274.746094 226.671875 274.746094 224.84375 C 261.4375 229.132812 257.570312 235.136719 260.34375 246.167969 C 270.71875 243.183594 274.058594 239.566406 274.746094 229.820312 M 244.429688 183.035156 C 242.75 182.359375 241.070312 181.683594 239.269531 180.957031 C 237.558594 193.632812 241.519531 199.34375 253.679688 202.394531 C 254.980469 191.417969 253.429688 187.953125 244.429688 183.035156 M 253.472656 257.492188 C 251.359375 250.355469 245.070312 248.957031 239.230469 246.347656 C 237.679688 259.351562 241.597656 264.96875 253.738281 267.929688 C 253.738281 264.714844 253.738281 261.507812 253.472656 257.492188 M 251.429688 231.566406 C 247.535156 229.128906 243.636719 226.695312 239.242188 223.945312 C 237.84375 237.84375 242.007812 243.714844 254.964844 246.292969 C 253.867188 241.28125 252.871094 236.742188 251.429688 231.566406 M 249.738281 223.066406 C 250.996094 223.480469 252.253906 223.890625 253.558594 224.316406 C 255.351562 211.664062 250.222656 204.445312 238.960938 203.414062 C 238.300781 215.3125 240.03125 218.621094 249.738281 223.066406 M 302.855469 307.109375 C 302.113281 307.941406 300.738281 308.765625 300.722656 309.613281 C 300.570312 318.917969 300.625 328.230469 300.625 337.628906 C 302.96875 337.628906 304.898438 337.628906 307.152344 337.628906 C 307.152344 328.191406 307.050781 319.054688 307.210938 309.917969 C 307.261719 307.105469 305.855469 306.90625 302.855469 307.109375 Z M 302.855469 307.109375 "/>
<path style=" stroke:none;fill-rule:nonzero;fill:rgb(98.823529%,73.333335%,34.901962%);fill-opacity:1;" d="M 233.449219 162.816406 C 233.734375 173.367188 234.234375 183.40625 234.242188 193.445312 C 234.25 202.324219 233.566406 211.199219 233.457031 220.082031 C 233.316406 231.226562 233.378906 242.375 233.480469 253.519531 C 233.554688 262.265625 238.546875 267.585938 246.042969 271.136719 C 255.109375 275.4375 255.089844 275.480469 253.597656 285.9375 C 234.324219 286.90625 211.960938 272.355469 202.90625 252.964844 C 189.589844 224.441406 198.25 192.941406 224.425781 175.5625 C 227.28125 173.667969 228.148438 171.738281 228.089844 168.535156 C 227.910156 159.324219 227.90625 150.105469 228.148438 140.898438 C 228.191406 139.320312 229.792969 137.785156 230.675781 136.234375 C 231.601562 137.757812 233.257812 139.253906 233.320312 140.808594 C 233.609375 147.964844 233.449219 155.136719 233.449219 162.816406 Z M 233.449219 162.816406 "/>
<path style=" stroke:none;fill-rule:nonzero;fill:rgb(99.215686%,73.725492%,34.901962%);fill-opacity:1;" d="M 316.585938 222.75 C 318 257.074219 293.28125 284.792969 259.535156 286.199219 C 259.535156 282.890625 259.351562 279.578125 259.648438 276.304688 C 259.738281 275.304688 260.996094 274.132812 262.011719 273.558594 C 263.921875 272.476562 266.0625 271.808594 268.078125 270.902344 C 276 267.351562 280.402344 261.339844 280.308594 252.546875 C 280.179688 240.257812 279.683594 227.972656 279.597656 215.6875 C 279.558594 210.25 280.378906 204.8125 280.40625 199.371094 C 280.503906 180.191406 280.421875 161.007812 280.410156 141.824219 C 280.410156 141.144531 280.167969 140.3125 280.46875 139.808594 C 281.234375 138.535156 282.242188 137.414062 283.152344 136.230469 C 284.015625 137.460938 285.59375 138.671875 285.621094 139.921875 C 285.839844 148.957031 285.949219 158.003906 285.65625 167.03125 C 285.515625 171.347656 286.742188 173.898438 290.511719 176.507812 C 306.425781 187.511719 315.300781 202.820312 316.585938 222.75 Z M 316.585938 222.75 "/>
<path style=" stroke:none;fill-rule:nonzero;fill:rgb(81.568629%,81.960785%,82.352942%);fill-opacity:1;" d="M 185.390625 337.125 C 174.371094 340.257812 165.847656 336.125 163.6875 326.9375 C 161.457031 317.441406 167.25 308.417969 176.699219 306.683594 C 184.121094 305.324219 191.496094 309.390625 193.960938 316.207031 C 196.941406 324.449219 193.929688 332.058594 185.390625 337.125 M 185.925781 315.398438 C 185.148438 314.746094 184.460938 313.921875 183.582031 313.476562 C 179.722656 311.515625 176.015625 311.71875 172.796875 314.808594 C 169.554688 317.921875 168.757812 324.152344 171.128906 328.039062 C 173.539062 331.988281 177.214844 333.386719 181.625 332.347656 C 186.289062 331.25 188.304688 327.726562 188.242188 323.285156 C 188.207031 320.859375 187.046875 318.453125 185.925781 315.398438 Z M 185.925781 315.398438 "/>
<path style=" stroke:none;fill-rule:nonzero;fill:rgb(81.960785%,82.352942%,82.745099%);fill-opacity:1;" d="M 143.628906 325.601562 C 143.628906 329.84375 143.628906 333.582031 143.628906 337.332031 C 140.167969 338.960938 138.265625 337.488281 136.558594 334.65625 C 133.859375 330.15625 130.859375 325.839844 127.136719 320.140625 C 127.136719 326.804688 127.136719 332.066406 127.136719 337.625 C 124.75 337.625 123 337.625 121.019531 337.625 C 121.019531 327.582031 121.019531 317.605469 121.019531 305.792969 C 123.773438 307.683594 126.144531 308.597656 127.414062 310.320312 C 130.699219 314.789062 133.5 319.613281 137.296875 325.554688 C 137.296875 318.734375 137.296875 313.292969 137.296875 307.386719 C 139.582031 307.269531 141.332031 307.179688 143.628906 307.058594 C 143.628906 313.308594 143.628906 319.203125 143.628906 325.601562 Z M 143.628906 325.601562 "/>
<path style=" stroke:none;fill-rule:nonzero;fill:rgb(81.960785%,82.352942%,82.745099%);fill-opacity:1;" d="M 387.128906 335.566406 C 387.125 331.867188 387.125 328.644531 387.125 325.109375 C 383.550781 325.109375 380.285156 325.109375 376.546875 325.109375 C 376.546875 329.296875 376.546875 333.324219 376.546875 337.652344 C 374.308594 337.652344 372.53125 337.652344 370.519531 337.652344 C 370.519531 327.609375 370.519531 317.621094 370.519531 307.363281 C 372.398438 307.363281 374.183594 307.363281 376.421875 307.363281 C 376.421875 311.195312 376.421875 314.890625 376.421875 318.929688 C 380.132812 318.929688 383.414062 318.929688 386.960938 318.929688 C 386.960938 315.1875 386.960938 311.464844 386.960938 307.40625 C 389.007812 307.40625 390.800781 307.40625 392.925781 307.40625 C 392.925781 317.367188 392.925781 327.449219 392.925781 338.839844 C 390.664062 337.75 388.898438 336.898438 387.128906 335.566406 Z M 387.128906 335.566406 "/>
<path style=" stroke:none;fill-rule:nonzero;fill:rgb(80.784315%,81.176472%,81.568629%);fill-opacity:1;" d="M 238.035156 308.039062 C 238.160156 314.25 238.367188 320.042969 238.128906 325.820312 C 237.796875 333.941406 233.042969 338.738281 225.925781 338.574219 C 218.121094 338.398438 214.03125 333.878906 213.957031 325.253906 C 213.90625 319.332031 213.945312 313.40625 213.945312 307.277344 C 216.089844 307.277344 217.90625 307.277344 220.386719 307.277344 C 220.386719 312.726562 220.351562 318.269531 220.40625 323.8125 C 220.421875 325.5 220.078125 327.679688 220.964844 328.757812 C 222.386719 330.488281 225.011719 332.828125 226.558594 332.464844 C 228.503906 332.011719 231.082031 329.210938 231.269531 327.222656 C 231.867188 320.816406 231.492188 314.316406 231.492188 307.121094 C 233.777344 307.296875 235.847656 307.457031 238.035156 308.039062 Z M 238.035156 308.039062 "/>
<path style=" stroke:none;fill-rule:nonzero;fill:rgb(81.960785%,82.352942%,82.745099%);fill-opacity:1;" d="M 279.285156 337.921875 C 275.171875 338.75 273.628906 336.875 272.117188 333.667969 C 270.769531 330.816406 271.15625 325.796875 265.289062 326.042969 C 265.289062 329.988281 265.289062 333.652344 265.289062 337.699219 C 263.121094 337.792969 261.347656 337.871094 259.265625 337.964844 C 259.265625 327.546875 259.265625 317.417969 259.265625 307.304688 C 268.007812 305.125 276.015625 306.78125 278.558594 311.261719 C 280.882812 315.347656 279.78125 319.738281 274.980469 324.679688 C 276.53125 328.066406 278.214844 331.5625 279.714844 335.132812 C 280.042969 335.921875 279.730469 336.980469 279.285156 337.921875 M 268.429688 321.015625 C 272.058594 320.753906 274.5 319.03125 273.390625 315.207031 C 272.164062 310.984375 268.519531 312.378906 264.800781 312.214844 C 266.4375 315.453125 262.667969 319.351562 268.429688 321.015625 Z M 268.429688 321.015625 "/>
<path style=" stroke:none;fill-rule:nonzero;fill:rgb(80.784315%,81.176472%,81.568629%);fill-opacity:1;" d="M 341.136719 319.40625 C 348.671875 321.335938 350.734375 323.609375 350.363281 329.175781 C 350.015625 334.40625 346.332031 337.804688 339.984375 338.417969 C 337.992188 338.609375 335.902344 338.351562 333.914062 337.984375 C 327.65625 336.824219 327.25 336.0625 328.574219 330.347656 C 332.414062 331.148438 336.171875 332.328125 339.984375 332.523438 C 341.359375 332.59375 342.851562 330.300781 344.289062 329.089844 C 342.917969 327.902344 341.710938 326.371094 340.128906 325.628906 C 338.488281 324.863281 336.441406 325.023438 334.65625 324.5 C 330.40625 323.25 328.019531 320.308594 328.082031 315.867188 C 328.140625 311.511719 330.332031 308.316406 334.648438 307.210938 C 336.894531 306.636719 339.386719 306.429688 341.675781 306.738281 C 347.871094 307.582031 348.257812 308.351562 346.945312 314.410156 C 344.289062 313.691406 341.640625 312.507812 338.960938 312.433594 C 337.375 312.390625 335.738281 314.097656 334.125 315.019531 C 335.328125 316.234375 336.425781 317.597656 337.785156 318.605469 C 338.535156 319.164062 339.730469 319.128906 341.136719 319.40625 Z M 341.136719 319.40625 "/>
<path style=" stroke:none;fill-rule:nonzero;fill:rgb(97.647059%,72.549021%,34.509805%);fill-opacity:1;" d="M 265.105469 162.625 C 264.648438 166.066406 266.253906 166.789062 268.898438 167.007812 C 273.46875 167.390625 276.484375 169.246094 274.3125 174.707031 C 269.742188 176.9375 264.941406 179.28125 259.660156 181.855469 C 259.660156 173.195312 259.570312 164.761719 259.785156 156.332031 C 259.808594 155.351562 261.507812 154.414062 262.429688 153.457031 C 263.3125 154.492188 264.667969 155.40625 264.960938 156.585938 C 265.402344 158.347656 265.09375 160.292969 265.105469 162.625 Z M 265.105469 162.625 "/>
<path style=" stroke:none;fill-rule:nonzero;fill:rgb(97.647059%,72.549021%,34.509805%);fill-opacity:1;" d="M 254.046875 163.890625 C 254.046875 170.097656 254.046875 175.808594 254.046875 181.738281 C 249.257812 179.523438 244.875 177.75 240.800781 175.4375 C 239.640625 174.78125 238.898438 172.5625 238.871094 171.042969 C 238.851562 170.042969 240.296875 168.78125 241.371094 168.058594 C 242.300781 167.433594 243.625 167.152344 244.777344 167.152344 C 248.296875 167.148438 249.011719 165.199219 248.726562 162.1875 C 248.554688 160.332031 248.402344 158.378906 248.8125 156.597656 C 249.09375 155.390625 250.359375 154.40625 251.183594 153.324219 C 252.132812 154.46875 253.628906 155.492188 253.910156 156.777344 C 254.367188 158.890625 254.039062 161.175781 254.046875 163.890625 Z M 254.046875 163.890625 "/>
<path style=" stroke:none;fill-rule:nonzero;fill:rgb(96.470588%,71.764708%,34.117648%);fill-opacity:1;" d="M 261.605469 267.746094 C 260.664062 267.203125 259.625 266.523438 259.558594 265.761719 C 258.667969 255.25 262.039062 250.847656 273.871094 246.816406 C 276.902344 256.976562 273.570312 262.78125 261.605469 267.746094 Z M 261.605469 267.746094 "/>
<path style=" stroke:none;fill-rule:nonzero;fill:rgb(97.647059%,72.549021%,34.509805%);fill-opacity:1;" d="M 263.203125 223.332031 C 260.503906 224.824219 259.640625 224.265625 259.527344 221.472656 C 259.09375 210.941406 262.957031 206.0625 274.332031 203.203125 C 275.875 214.632812 273.886719 218.335938 263.203125 223.332031 Z M 263.203125 223.332031 "/>
<path style=" stroke:none;fill-rule:nonzero;fill:rgb(97.647059%,72.549021%,34.509805%);fill-opacity:1;" d="M 265.882812 200.410156 C 263.839844 201.273438 262.136719 201.960938 260.410156 202.65625 C 257.535156 191.480469 261.300781 185.597656 273.90625 181.296875 C 276.578125 189.929688 274.277344 195.59375 265.882812 200.410156 Z M 265.882812 200.410156 "/>
<path style=" stroke:none;fill-rule:nonzero;fill:rgb(97.647059%,72.549021%,34.509805%);fill-opacity:1;" d="M 274.722656 230.21875 C 274.058594 239.566406 270.71875 243.183594 260.34375 246.167969 C 257.570312 235.136719 261.4375 229.132812 274.746094 224.84375 C 274.746094 226.671875 274.746094 228.246094 274.722656 230.21875 Z M 274.722656 230.21875 "/>
<path style=" stroke:none;fill-rule:nonzero;fill:rgb(96.470588%,71.764708%,34.117648%);fill-opacity:1;" d="M 244.792969 183.175781 C 253.429688 187.953125 254.980469 191.417969 253.679688 202.394531 C 241.519531 199.34375 237.558594 193.632812 239.269531 180.957031 C 241.070312 181.683594 242.75 182.359375 244.792969 183.175781 Z M 244.792969 183.175781 "/>
<path style=" stroke:none;fill-rule:nonzero;fill:rgb(96.470588%,71.764708%,34.117648%);fill-opacity:1;" d="M 253.605469 257.898438 C 253.738281 261.507812 253.738281 264.714844 253.738281 267.929688 C 241.597656 264.96875 237.679688 259.351562 239.230469 246.347656 C 245.070312 248.957031 251.359375 250.355469 253.605469 257.898438 Z M 253.605469 257.898438 "/>
<path style=" stroke:none;fill-rule:nonzero;fill:rgb(96.470588%,71.764708%,34.117648%);fill-opacity:1;" d="M 251.652344 231.886719 C 252.871094 236.742188 253.867188 241.28125 254.964844 246.292969 C 242.007812 243.714844 237.84375 237.84375 239.242188 223.945312 C 243.636719 226.695312 247.535156 229.128906 251.652344 231.886719 Z M 251.652344 231.886719 "/>
<path style=" stroke:none;fill-rule:nonzero;fill:rgb(97.647059%,72.549021%,34.509805%);fill-opacity:1;" d="M 249.386719 222.875 C 240.03125 218.621094 238.300781 215.3125 238.960938 203.414062 C 250.222656 204.445312 255.351562 211.664062 253.558594 224.316406 C 252.253906 223.890625 250.996094 223.480469 249.386719 222.875 Z M 249.386719 222.875 "/>
<path style=" stroke:none;fill-rule:nonzero;fill:rgb(83.529413%,83.92157%,83.92157%);fill-opacity:1;" d="M 303.320312 307.109375 C 305.855469 306.90625 307.261719 307.105469 307.210938 309.917969 C 307.050781 319.054688 307.152344 328.191406 307.152344 337.628906 C 304.898438 337.628906 302.96875 337.628906 300.625 337.628906 C 300.625 328.230469 300.570312 318.917969 300.722656 309.613281 C 300.738281 308.765625 302.113281 307.941406 303.320312 307.109375 Z M 303.320312 307.109375 "/>
<path style=" stroke:none;fill-rule:nonzero;fill:rgb(1.960784%,12.156863%,18.431373%);fill-opacity:1;" d="M 186.160156 315.71875 C 187.046875 318.453125 188.207031 320.859375 188.242188 323.285156 C 188.304688 327.726562 186.289062 331.25 181.625 332.347656 C 177.214844 333.386719 173.539062 331.988281 171.128906 328.039062 C 168.757812 324.152344 169.554688 317.921875 172.796875 314.808594 C 176.015625 311.71875 179.722656 311.515625 183.582031 313.476562 C 184.460938 313.921875 185.148438 314.746094 186.160156 315.71875 Z M 186.160156 315.71875 "/>
<path style=" stroke:none;fill-rule:nonzero;fill:rgb(1.960784%,12.156863%,18.431373%);fill-opacity:1;" d="M 268.011719 321.035156 C 262.667969 319.351562 266.4375 315.453125 264.800781 312.214844 C 268.519531 312.378906 272.164062 310.984375 273.390625 315.207031 C 274.5 319.03125 272.058594 320.753906 268.011719 321.035156 Z M 268.011719 321.035156 "/>
</g>
</svg>
