<?xml version="1.0" encoding="UTF-8"?>
<svg xmlns="http://www.w3.org/2000/svg" xmlns:xlink="http://www.w3.org/1999/xlink" width="192px" height="192px" viewBox="0 0 192 192" version="1.1">
<g id="surface1">
<path style=" stroke:none;fill-rule:nonzero;fill:rgb(0%,10.588235%,16.862746%);fill-opacity:1;" d="M 93.695312 192.382812 C 62.464844 192.382812 31.425781 192.382812 0.382812 192.382812 C 0.382812 128.382812 0.382812 64.382812 0.382812 0.382812 C 64.382812 0.382812 128.382812 0.382812 192.382812 0.382812 C 192.382812 64.382812 192.382812 128.382812 192.382812 192.382812 C 159.550781 192.382812 126.71875 192.382812 93.695312 192.382812 M 87.542969 60.863281 C 87.542969 58.175781 87.601562 55.488281 87.496094 52.804688 C 87.472656 52.21875 86.851562 51.660156 86.503906 51.085938 C 86.171875 51.671875 85.570312 52.246094 85.554688 52.835938 C 85.464844 56.289062 85.464844 59.746094 85.53125 63.199219 C 85.554688 64.402344 85.230469 65.125 84.160156 65.835938 C 74.34375 72.351562 71.097656 84.164062 76.089844 94.863281 C 79.484375 102.132812 87.871094 107.589844 95.097656 107.226562 C 95.660156 103.304688 95.667969 103.289062 92.265625 101.675781 C 89.457031 100.34375 87.582031 98.347656 87.554688 95.070312 C 87.519531 90.890625 87.492188 86.710938 87.546875 82.53125 C 87.589844 79.199219 87.84375 75.871094 87.839844 72.542969 C 87.835938 68.777344 87.652344 65.011719 87.542969 60.863281 M 118.710938 83.363281 C 118.238281 76.058594 114.910156 70.316406 108.941406 66.191406 C 107.527344 65.210938 107.070312 64.257812 107.121094 62.636719 C 107.230469 59.25 107.191406 55.859375 107.109375 52.472656 C 107.097656 52.003906 106.503906 51.546875 106.183594 51.085938 C 105.839844 51.53125 105.460938 51.953125 105.175781 52.429688 C 105.0625 52.617188 105.152344 52.929688 105.152344 53.183594 C 105.160156 60.378906 105.1875 67.570312 105.152344 74.765625 C 105.144531 76.804688 104.835938 78.84375 104.847656 80.882812 C 104.882812 85.492188 105.066406 90.097656 105.117188 94.703125 C 105.152344 98.003906 103.5 100.257812 100.527344 101.589844 C 99.773438 101.929688 98.96875 102.179688 98.253906 102.585938 C 97.875 102.800781 97.402344 103.238281 97.367188 103.613281 C 97.257812 104.839844 97.324219 106.085938 97.324219 107.324219 C 109.980469 106.796875 119.25 96.402344 118.710938 83.363281 M 69.65625 126.363281 C 72.722656 124.523438 73.851562 121.667969 72.734375 118.578125 C 71.8125 116.023438 69.046875 114.496094 66.261719 115.007812 C 62.71875 115.65625 60.546875 119.039062 61.382812 122.601562 C 62.191406 126.046875 65.386719 127.597656 69.65625 126.363281 M 53.859375 121.910156 C 53.859375 119.699219 53.859375 117.488281 53.859375 115.148438 C 53 115.191406 52.34375 115.226562 51.488281 115.269531 C 51.488281 117.484375 51.488281 119.527344 51.488281 122.082031 C 50.0625 119.855469 49.011719 118.046875 47.78125 116.371094 C 47.304688 115.722656 46.414062 115.382812 45.382812 114.671875 C 45.382812 119.101562 45.382812 122.84375 45.382812 126.609375 C 46.125 126.609375 46.78125 126.609375 47.675781 126.609375 C 47.675781 124.523438 47.675781 122.550781 47.675781 120.054688 C 49.074219 122.1875 50.195312 123.808594 51.210938 125.496094 C 51.847656 126.558594 52.5625 127.109375 53.859375 126.5 C 53.859375 125.09375 53.859375 123.691406 53.859375 121.910156 M 145.175781 126.019531 C 145.835938 126.335938 146.5 126.65625 147.347656 127.066406 C 147.347656 122.792969 147.347656 119.011719 147.347656 115.277344 C 146.550781 115.277344 145.878906 115.277344 145.109375 115.277344 C 145.109375 116.800781 145.109375 118.195312 145.109375 119.597656 C 143.78125 119.597656 142.550781 119.597656 141.15625 119.597656 C 141.15625 118.082031 141.15625 116.699219 141.15625 115.261719 C 140.320312 115.261719 139.648438 115.261719 138.945312 115.261719 C 138.945312 119.109375 138.945312 122.855469 138.945312 126.621094 C 139.699219 126.621094 140.367188 126.621094 141.207031 126.621094 C 141.207031 124.996094 141.207031 123.484375 141.207031 121.917969 C 142.605469 121.917969 143.832031 121.917969 145.171875 121.917969 C 145.171875 123.242188 145.171875 124.449219 145.175781 126.019531 M 89.21875 115.355469 C 88.441406 115.296875 87.667969 115.238281 86.808594 115.171875 C 86.808594 117.867188 86.949219 120.304688 86.726562 122.710938 C 86.65625 123.453125 85.6875 124.503906 84.960938 124.675781 C 84.378906 124.808594 83.394531 123.933594 82.859375 123.285156 C 82.527344 122.878906 82.660156 122.0625 82.652344 121.429688 C 82.632812 119.351562 82.644531 117.273438 82.644531 115.230469 C 81.714844 115.230469 81.035156 115.230469 80.230469 115.230469 C 80.230469 117.527344 80.214844 119.75 80.234375 121.96875 C 80.261719 125.207031 81.796875 126.898438 84.722656 126.964844 C 87.390625 127.027344 89.175781 125.226562 89.296875 122.183594 C 89.386719 120.015625 89.308594 117.84375 89.21875 115.355469 M 104.890625 126.71875 C 104.898438 126.367188 105.015625 125.96875 104.894531 125.675781 C 104.332031 124.335938 103.699219 123.023438 103.117188 121.753906 C 104.917969 119.902344 105.332031 118.253906 104.460938 116.722656 C 103.507812 115.042969 100.503906 114.421875 97.226562 115.238281 C 97.226562 119.03125 97.226562 122.828125 97.226562 126.734375 C 98.003906 126.703125 98.667969 126.671875 99.484375 126.636719 C 99.484375 125.121094 99.484375 123.746094 99.484375 122.265625 C 101.683594 122.175781 101.539062 124.054688 102.042969 125.125 C 102.613281 126.328125 103.1875 127.03125 104.890625 126.71875 M 127.769531 119.757812 C 127.398438 119.671875 126.949219 119.6875 126.667969 119.476562 C 126.160156 119.101562 125.75 118.589844 125.296875 118.132812 C 125.902344 117.785156 126.515625 117.144531 127.109375 117.164062 C 128.117188 117.191406 129.109375 117.632812 130.105469 117.902344 C 130.597656 115.632812 130.453125 115.34375 128.128906 115.027344 C 127.269531 114.910156 126.335938 114.988281 125.492188 115.203125 C 123.875 115.617188 123.054688 116.816406 123.03125 118.449219 C 123.007812 120.117188 123.902344 121.21875 125.496094 121.6875 C 126.164062 121.882812 126.933594 121.824219 127.546875 122.113281 C 128.140625 122.386719 128.59375 122.964844 129.109375 123.410156 C 128.570312 123.863281 128.007812 124.722656 127.496094 124.695312 C 126.066406 124.621094 124.65625 124.179688 123.214844 123.878906 C 122.71875 126.023438 122.871094 126.308594 125.21875 126.746094 C 125.964844 126.882812 126.746094 126.976562 127.492188 126.90625 C 129.875 126.675781 131.253906 125.402344 131.386719 123.441406 C 131.527344 121.351562 130.753906 120.5 127.769531 119.757812 M 99.414062 60.8125 C 99.410156 60.109375 99.527344 59.378906 99.359375 58.71875 C 99.25 58.277344 98.742188 57.933594 98.410156 57.546875 C 98.066406 57.90625 97.429688 58.257812 97.417969 58.625 C 97.339844 61.785156 97.371094 64.949219 97.371094 68.195312 C 99.351562 67.230469 101.152344 66.351562 102.867188 65.515625 C 103.683594 63.46875 102.550781 62.773438 100.835938 62.628906 C 99.84375 62.546875 99.242188 62.273438 99.414062 60.8125 M 95.265625 61.269531 C 95.265625 60.441406 95.386719 59.585938 95.214844 58.792969 C 95.109375 58.308594 94.550781 57.925781 94.195312 57.496094 C 93.886719 57.902344 93.410156 58.269531 93.304688 58.726562 C 93.152344 59.390625 93.207031 60.125 93.273438 60.820312 C 93.378906 61.949219 93.109375 62.679688 91.792969 62.683594 C 91.359375 62.683594 90.863281 62.789062 90.511719 63.023438 C 90.109375 63.292969 89.570312 63.765625 89.574219 64.140625 C 89.585938 64.710938 89.867188 65.542969 90.300781 65.789062 C 91.828125 66.65625 93.472656 67.320312 95.265625 68.152344 C 95.265625 65.925781 95.265625 63.789062 95.265625 61.269531 M 98.234375 100.339844 C 102.589844 98.542969 103.839844 96.367188 102.703125 92.554688 C 98.265625 94.066406 97 95.71875 97.335938 99.660156 C 97.359375 99.945312 97.75 100.199219 98.234375 100.339844 M 98.839844 83.703125 C 102.707031 81.875 103.453125 80.488281 102.875 76.199219 C 98.609375 77.273438 97.160156 79.101562 97.324219 83.054688 C 97.367188 84.101562 97.6875 84.308594 98.839844 83.703125 M 99.832031 75.089844 C 102.855469 73.347656 103.714844 71.222656 102.714844 67.984375 C 97.988281 69.601562 96.574219 71.804688 97.652344 75.996094 C 98.300781 75.734375 98.941406 75.476562 99.832031 75.089844 M 103.03125 86.183594 C 103.03125 85.59375 103.03125 85.003906 103.03125 84.316406 C 98.039062 85.925781 96.589844 88.175781 97.628906 92.3125 C 101.519531 91.195312 102.773438 89.835938 103.03125 86.183594 M 91.660156 68.636719 C 91.03125 68.382812 90.402344 68.128906 89.726562 67.859375 C 89.085938 72.613281 90.570312 74.753906 95.128906 75.898438 C 95.617188 71.78125 95.035156 70.480469 91.660156 68.636719 M 95.050781 96.558594 C 94.261719 93.882812 91.902344 93.359375 89.710938 92.382812 C 89.128906 97.257812 90.601562 99.363281 95.152344 100.472656 C 95.152344 99.265625 95.152344 98.066406 95.050781 96.558594 M 94.285156 86.835938 C 92.824219 85.925781 91.363281 85.011719 89.714844 83.980469 C 89.191406 89.191406 90.753906 91.394531 95.613281 92.359375 C 95.199219 90.480469 94.824219 88.777344 94.285156 86.835938 M 93.652344 83.652344 C 94.125 83.804688 94.59375 83.957031 95.085938 84.117188 C 95.757812 79.375 93.835938 76.667969 89.609375 76.28125 C 89.363281 80.742188 90.011719 81.980469 93.652344 83.652344 M 113.570312 115.167969 C 113.292969 115.480469 112.777344 115.789062 112.769531 116.105469 C 112.714844 119.59375 112.734375 123.085938 112.734375 126.609375 C 113.613281 126.609375 114.335938 126.609375 115.183594 126.609375 C 115.183594 123.074219 115.144531 119.644531 115.203125 116.21875 C 115.222656 115.164062 114.695312 115.089844 113.570312 115.167969 Z M 113.570312 115.167969 "/>
<path style=" stroke:none;fill-rule:nonzero;fill:rgb(98.823529%,73.333335%,34.901962%);fill-opacity:1;" d="M 87.542969 61.054688 C 87.652344 65.011719 87.835938 68.777344 87.839844 72.542969 C 87.84375 75.871094 87.589844 79.199219 87.546875 82.53125 C 87.492188 86.710938 87.519531 90.890625 87.554688 95.070312 C 87.582031 98.347656 89.457031 100.34375 92.265625 101.675781 C 95.667969 103.289062 95.660156 103.304688 95.097656 107.226562 C 87.871094 107.589844 79.484375 102.132812 76.089844 94.863281 C 71.097656 84.164062 74.34375 72.351562 84.160156 65.835938 C 85.230469 65.125 85.554688 64.402344 85.53125 63.199219 C 85.464844 59.746094 85.464844 56.289062 85.554688 52.835938 C 85.570312 52.246094 86.171875 51.671875 86.503906 51.085938 C 86.851562 51.660156 87.472656 52.21875 87.496094 52.804688 C 87.601562 55.488281 87.542969 58.175781 87.542969 61.054688 Z M 87.542969 61.054688 "/>
<path style=" stroke:none;fill-rule:nonzero;fill:rgb(99.215686%,73.725492%,34.901962%);fill-opacity:1;" d="M 118.71875 83.53125 C 119.25 96.402344 109.980469 106.796875 97.324219 107.324219 C 97.324219 106.085938 97.257812 104.839844 97.367188 103.613281 C 97.402344 103.238281 97.875 102.800781 98.253906 102.585938 C 98.96875 102.179688 99.773438 101.929688 100.527344 101.589844 C 103.5 100.257812 105.152344 98.003906 105.117188 94.703125 C 105.066406 90.097656 104.882812 85.492188 104.847656 80.882812 C 104.835938 78.84375 105.144531 76.804688 105.152344 74.765625 C 105.1875 67.570312 105.160156 60.378906 105.152344 53.183594 C 105.152344 52.929688 105.0625 52.617188 105.175781 52.429688 C 105.460938 51.953125 105.839844 51.53125 106.183594 51.085938 C 106.503906 51.546875 107.097656 52.003906 107.109375 52.472656 C 107.191406 55.859375 107.230469 59.25 107.121094 62.636719 C 107.070312 64.257812 107.527344 65.210938 108.941406 66.191406 C 114.910156 70.316406 118.238281 76.058594 118.71875 83.53125 Z M 118.71875 83.53125 "/>
<path style=" stroke:none;fill-rule:nonzero;fill:rgb(81.568629%,81.960785%,82.352942%);fill-opacity:1;" d="M 69.519531 126.421875 C 65.386719 127.597656 62.191406 126.046875 61.382812 122.601562 C 60.546875 119.039062 62.71875 115.65625 66.261719 115.007812 C 69.046875 114.496094 71.8125 116.023438 72.734375 118.578125 C 73.851562 121.667969 72.722656 124.523438 69.519531 126.421875 M 69.722656 118.273438 C 69.429688 118.03125 69.171875 117.71875 68.84375 117.554688 C 67.394531 116.820312 66.007812 116.894531 64.800781 118.054688 C 63.582031 119.21875 63.285156 121.558594 64.171875 123.015625 C 65.078125 124.496094 66.457031 125.019531 68.109375 124.628906 C 69.859375 124.21875 70.613281 122.898438 70.589844 121.230469 C 70.578125 120.324219 70.144531 119.421875 69.722656 118.273438 Z M 69.722656 118.273438 "/>
<path style=" stroke:none;fill-rule:nonzero;fill:rgb(81.960785%,82.352942%,82.745099%);fill-opacity:1;" d="M 53.859375 122.101562 C 53.859375 123.691406 53.859375 125.09375 53.859375 126.5 C 52.5625 127.109375 51.847656 126.558594 51.210938 125.496094 C 50.195312 123.808594 49.074219 122.1875 47.675781 120.054688 C 47.675781 122.550781 47.675781 124.523438 47.675781 126.609375 C 46.78125 126.609375 46.125 126.609375 45.382812 126.609375 C 45.382812 122.84375 45.382812 119.101562 45.382812 114.671875 C 46.414062 115.382812 47.304688 115.722656 47.78125 116.371094 C 49.011719 118.046875 50.0625 119.855469 51.488281 122.082031 C 51.488281 119.527344 51.488281 117.484375 51.488281 115.269531 C 52.34375 115.226562 53 115.191406 53.859375 115.148438 C 53.859375 117.488281 53.859375 119.699219 53.859375 122.101562 Z M 53.859375 122.101562 "/>
<path style=" stroke:none;fill-rule:nonzero;fill:rgb(81.960785%,82.352942%,82.745099%);fill-opacity:1;" d="M 145.171875 125.835938 C 145.171875 124.449219 145.171875 123.242188 145.171875 121.917969 C 143.832031 121.917969 142.605469 121.917969 141.207031 121.917969 C 141.207031 123.484375 141.207031 124.996094 141.207031 126.621094 C 140.367188 126.621094 139.699219 126.621094 138.945312 126.621094 C 138.945312 122.855469 138.945312 119.109375 138.945312 115.261719 C 139.648438 115.261719 140.320312 115.261719 141.15625 115.261719 C 141.15625 116.699219 141.15625 118.082031 141.15625 119.597656 C 142.550781 119.597656 143.78125 119.597656 145.109375 119.597656 C 145.109375 118.195312 145.109375 116.800781 145.109375 115.277344 C 145.878906 115.277344 146.550781 115.277344 147.347656 115.277344 C 147.347656 119.011719 147.347656 122.792969 147.347656 127.066406 C 146.5 126.65625 145.835938 126.335938 145.171875 125.835938 Z M 145.171875 125.835938 "/>
<path style=" stroke:none;fill-rule:nonzero;fill:rgb(80.784315%,81.176472%,81.568629%);fill-opacity:1;" d="M 89.261719 115.515625 C 89.308594 117.84375 89.386719 120.015625 89.296875 122.183594 C 89.175781 125.226562 87.390625 127.027344 84.722656 126.964844 C 81.796875 126.898438 80.261719 125.207031 80.234375 121.96875 C 80.214844 119.75 80.230469 117.527344 80.230469 115.230469 C 81.035156 115.230469 81.714844 115.230469 82.644531 115.230469 C 82.644531 117.273438 82.632812 119.351562 82.652344 121.429688 C 82.660156 122.0625 82.527344 122.878906 82.859375 123.285156 C 83.394531 123.933594 84.378906 124.808594 84.960938 124.675781 C 85.6875 124.503906 86.65625 123.453125 86.726562 122.710938 C 86.949219 120.304688 86.808594 117.867188 86.808594 115.171875 C 87.667969 115.238281 88.441406 115.296875 89.261719 115.515625 Z M 89.261719 115.515625 "/>
<path style=" stroke:none;fill-rule:nonzero;fill:rgb(81.960785%,82.352942%,82.745099%);fill-opacity:1;" d="M 104.730469 126.722656 C 103.1875 127.03125 102.613281 126.328125 102.042969 125.125 C 101.539062 124.054688 101.683594 122.175781 99.484375 122.265625 C 99.484375 123.746094 99.484375 125.121094 99.484375 126.636719 C 98.667969 126.671875 98.003906 126.703125 97.226562 126.734375 C 97.226562 122.828125 97.226562 119.03125 97.226562 115.238281 C 100.503906 114.421875 103.507812 115.042969 104.460938 116.722656 C 105.332031 118.253906 104.917969 119.902344 103.117188 121.753906 C 103.699219 123.023438 104.332031 124.335938 104.894531 125.675781 C 105.015625 125.96875 104.898438 126.367188 104.730469 126.722656 M 100.660156 120.382812 C 102.019531 120.28125 102.9375 119.636719 102.519531 118.203125 C 102.0625 116.621094 100.695312 117.140625 99.300781 117.082031 C 99.914062 118.296875 98.5 119.757812 100.660156 120.382812 Z M 100.660156 120.382812 "/>
<path style=" stroke:none;fill-rule:nonzero;fill:rgb(80.784315%,81.176472%,81.568629%);fill-opacity:1;" d="M 127.925781 119.777344 C 130.753906 120.5 131.527344 121.351562 131.386719 123.441406 C 131.253906 125.402344 129.875 126.675781 127.492188 126.90625 C 126.746094 126.976562 125.964844 126.882812 125.21875 126.746094 C 122.871094 126.308594 122.71875 126.023438 123.214844 123.878906 C 124.65625 124.179688 126.066406 124.621094 127.496094 124.695312 C 128.007812 124.722656 128.570312 123.863281 129.109375 123.410156 C 128.59375 122.964844 128.140625 122.386719 127.546875 122.113281 C 126.933594 121.824219 126.164062 121.882812 125.496094 121.6875 C 123.902344 121.21875 123.007812 120.117188 123.03125 118.449219 C 123.054688 116.816406 123.875 115.617188 125.492188 115.203125 C 126.335938 114.988281 127.269531 114.910156 128.128906 115.027344 C 130.453125 115.34375 130.597656 115.632812 130.105469 117.902344 C 129.109375 117.632812 128.117188 117.191406 127.109375 117.164062 C 126.515625 117.144531 125.902344 117.785156 125.296875 118.132812 C 125.75 118.589844 126.160156 119.101562 126.667969 119.476562 C 126.949219 119.6875 127.398438 119.671875 127.925781 119.777344 Z M 127.925781 119.777344 "/>
<path style=" stroke:none;fill-rule:nonzero;fill:rgb(97.647059%,72.549021%,34.509805%);fill-opacity:1;" d="M 99.414062 60.984375 C 99.242188 62.273438 99.84375 62.546875 100.835938 62.628906 C 102.550781 62.773438 103.683594 63.46875 102.867188 65.515625 C 101.152344 66.351562 99.351562 67.230469 97.371094 68.195312 C 97.371094 64.949219 97.339844 61.785156 97.417969 58.625 C 97.429688 58.257812 98.066406 57.90625 98.410156 57.546875 C 98.742188 57.933594 99.25 58.277344 99.359375 58.71875 C 99.527344 59.378906 99.410156 60.109375 99.414062 60.984375 Z M 99.414062 60.984375 "/>
<path style=" stroke:none;fill-rule:nonzero;fill:rgb(97.647059%,72.549021%,34.509805%);fill-opacity:1;" d="M 95.265625 61.457031 C 95.265625 63.789062 95.265625 65.925781 95.265625 68.152344 C 93.472656 67.320312 91.828125 66.65625 90.300781 65.789062 C 89.867188 65.542969 89.585938 64.710938 89.574219 64.140625 C 89.570312 63.765625 90.109375 63.292969 90.511719 63.023438 C 90.863281 62.789062 91.359375 62.683594 91.792969 62.683594 C 93.109375 62.679688 93.378906 61.949219 93.273438 60.820312 C 93.207031 60.125 93.152344 59.390625 93.304688 58.726562 C 93.410156 58.269531 93.886719 57.902344 94.195312 57.496094 C 94.550781 57.925781 95.109375 58.308594 95.214844 58.792969 C 95.386719 59.585938 95.265625 60.441406 95.265625 61.457031 Z M 95.265625 61.457031 "/>
<path style=" stroke:none;fill-rule:nonzero;fill:rgb(96.470588%,71.764708%,34.117648%);fill-opacity:1;" d="M 98.101562 100.40625 C 97.75 100.199219 97.359375 99.945312 97.335938 99.660156 C 97 95.71875 98.265625 94.066406 102.703125 92.554688 C 103.839844 96.367188 102.589844 98.542969 98.101562 100.40625 Z M 98.101562 100.40625 "/>
<path style=" stroke:none;fill-rule:nonzero;fill:rgb(97.647059%,72.549021%,34.509805%);fill-opacity:1;" d="M 98.699219 83.75 C 97.6875 84.308594 97.367188 84.101562 97.324219 83.054688 C 97.160156 79.101562 98.609375 77.273438 102.875 76.199219 C 103.453125 80.488281 102.707031 81.875 98.699219 83.75 Z M 98.699219 83.75 "/>
<path style=" stroke:none;fill-rule:nonzero;fill:rgb(97.647059%,72.549021%,34.509805%);fill-opacity:1;" d="M 99.707031 75.152344 C 98.941406 75.476562 98.300781 75.734375 97.652344 75.996094 C 96.574219 71.804688 97.988281 69.601562 102.714844 67.984375 C 103.714844 71.222656 102.855469 73.347656 99.707031 75.152344 Z M 99.707031 75.152344 "/>
<path style=" stroke:none;fill-rule:nonzero;fill:rgb(97.647059%,72.549021%,34.509805%);fill-opacity:1;" d="M 103.019531 86.332031 C 102.773438 89.835938 101.519531 91.195312 97.628906 92.3125 C 96.589844 88.175781 98.039062 85.925781 103.03125 84.316406 C 103.03125 85.003906 103.03125 85.59375 103.019531 86.332031 Z M 103.019531 86.332031 "/>
<path style=" stroke:none;fill-rule:nonzero;fill:rgb(96.470588%,71.764708%,34.117648%);fill-opacity:1;" d="M 91.796875 68.691406 C 95.035156 70.480469 95.617188 71.78125 95.128906 75.898438 C 90.570312 74.753906 89.085938 72.613281 89.726562 67.859375 C 90.402344 68.128906 91.03125 68.382812 91.796875 68.691406 Z M 91.796875 68.691406 "/>
<path style=" stroke:none;fill-rule:nonzero;fill:rgb(96.470588%,71.764708%,34.117648%);fill-opacity:1;" d="M 95.101562 96.710938 C 95.152344 98.066406 95.152344 99.265625 95.152344 100.472656 C 90.601562 99.363281 89.128906 97.257812 89.710938 92.382812 C 91.902344 93.359375 94.261719 93.882812 95.101562 96.710938 Z M 95.101562 96.710938 "/>
<path style=" stroke:none;fill-rule:nonzero;fill:rgb(96.470588%,71.764708%,34.117648%);fill-opacity:1;" d="M 94.371094 86.957031 C 94.824219 88.777344 95.199219 90.480469 95.613281 92.359375 C 90.753906 91.394531 89.191406 89.191406 89.714844 83.980469 C 91.363281 85.011719 92.824219 85.925781 94.371094 86.957031 Z M 94.371094 86.957031 "/>
<path style=" stroke:none;fill-rule:nonzero;fill:rgb(97.647059%,72.549021%,34.509805%);fill-opacity:1;" d="M 93.519531 83.578125 C 90.011719 81.980469 89.363281 80.742188 89.609375 76.28125 C 93.835938 76.667969 95.757812 79.375 95.085938 84.117188 C 94.59375 83.957031 94.125 83.804688 93.519531 83.578125 Z M 93.519531 83.578125 "/>
<path style=" stroke:none;fill-rule:nonzero;fill:rgb(83.529413%,83.92157%,83.92157%);fill-opacity:1;" d="M 113.746094 115.164062 C 114.695312 115.089844 115.222656 115.164062 115.203125 116.21875 C 115.144531 119.644531 115.183594 123.074219 115.183594 126.609375 C 114.335938 126.609375 113.613281 126.609375 112.734375 126.609375 C 112.734375 123.085938 112.714844 119.59375 112.769531 116.105469 C 112.777344 115.789062 113.292969 115.480469 113.746094 115.164062 Z M 113.746094 115.164062 "/>
<path style=" stroke:none;fill-rule:nonzero;fill:rgb(1.960784%,12.156863%,18.431373%);fill-opacity:1;" d="M 69.808594 118.394531 C 70.144531 119.421875 70.578125 120.324219 70.589844 121.230469 C 70.613281 122.898438 69.859375 124.21875 68.109375 124.628906 C 66.457031 125.019531 65.078125 124.496094 64.171875 123.015625 C 63.285156 121.558594 63.582031 119.21875 64.800781 118.054688 C 66.007812 116.894531 67.394531 116.820312 68.84375 117.554688 C 69.171875 117.71875 69.429688 118.03125 69.808594 118.394531 Z M 69.808594 118.394531 "/>
<path style=" stroke:none;fill-rule:nonzero;fill:rgb(1.960784%,12.156863%,18.431373%);fill-opacity:1;" d="M 100.503906 120.386719 C 98.5 119.757812 99.914062 118.296875 99.300781 117.082031 C 100.695312 117.140625 102.0625 116.621094 102.519531 118.203125 C 102.9375 119.636719 102.019531 120.28125 100.503906 120.386719 Z M 100.503906 120.386719 "/>
</g>
</svg>
