<?xml version="1.0" encoding="UTF-8"?>
<svg xmlns="http://www.w3.org/2000/svg" xmlns:xlink="http://www.w3.org/1999/xlink" width="192px" height="192px" viewBox="0 0 192 192" version="1.1">
<g id="surface1">
<path style=" stroke:none;fill-rule:nonzero;fill:rgb(0%,0%,0%);fill-opacity:1;" d="M 192 96 C 192 42.980469 149.019531 0 96 0 C 42.980469 0 0 42.980469 0 96 C 0 149.019531 42.980469 192 96 192 C 149.019531 192 192 149.019531 192 96 Z M 192 96 "/>
<path style=" stroke:none;fill-rule:nonzero;fill:rgb(100%,100%,100%);fill-opacity:1;" d="M 159.078125 67.578125 C 153.632812 63.769531 147.808594 59.707031 142.113281 55.679688 C 141.984375 55.585938 141.859375 55.492188 141.703125 55.398438 C 141.074219 54.925781 140.347656 54.421875 139.46875 54.136719 L 139.40625 54.105469 C 124.171875 50.421875 108.683594 46.648438 93.703125 42.996094 C 80.105469 39.691406 66.539062 36.386719 52.941406 33.082031 C 52.59375 32.984375 52.25 32.890625 51.871094 32.796875 C 50.644531 32.449219 49.226562 32.074219 47.714844 32.261719 C 47.277344 32.324219 46.898438 32.484375 46.550781 32.703125 L 46.175781 33.019531 C 45.578125 33.585938 45.261719 34.308594 45.105469 34.71875 L 45.011719 34.96875 L 45.011719 36.417969 L 45.074219 36.636719 C 53.664062 60.714844 62.480469 85.140625 70.976562 108.777344 C 77.523438 126.972656 84.324219 145.824219 90.964844 164.332031 C 91.375 165.59375 92.539062 166.410156 93.984375 166.535156 L 94.300781 166.535156 C 95.652344 166.535156 96.851562 165.875 97.449219 164.804688 L 122.375 128.449219 C 128.449219 119.605469 134.527344 110.730469 140.601562 101.886719 C 143.085938 98.265625 145.574219 94.613281 148.058594 90.996094 C 152.152344 85.015625 156.371094 78.847656 160.554688 72.835938 L 160.777344 72.519531 L 160.777344 72.140625 C 160.871094 71.039062 160.902344 68.773438 159.078125 67.578125 M 129.867188 80.828125 C 124.011719 83.882812 118.03125 87.03125 112.019531 90.144531 C 115.515625 86.398438 119.039062 82.621094 122.535156 78.878906 C 126.910156 74.15625 131.472656 69.277344 135.941406 64.492188 L 136.035156 64.398438 C 136.414062 63.894531 136.886719 63.421875 137.390625 62.917969 C 137.738281 62.574219 138.113281 62.226562 138.460938 61.816406 C 140.789062 63.421875 143.148438 65.058594 145.417969 66.664062 C 147.054688 67.828125 148.722656 68.992188 150.421875 70.160156 C 143.496094 73.683594 136.570312 77.304688 129.867188 80.828125 M 114.824219 79.316406 C 110.320312 84.195312 105.664062 89.203125 101.035156 94.144531 C 92.066406 83.253906 82.90625 72.203125 74.03125 61.535156 C 70 56.6875 65.941406 51.808594 61.914062 46.960938 L 61.878906 46.929688 C 60.96875 45.890625 60.085938 44.757812 59.207031 43.6875 C 58.640625 42.964844 58.039062 42.269531 57.441406 41.546875 C 61.09375 42.492188 64.777344 43.375 68.394531 44.222656 C 71.574219 44.976562 74.878906 45.765625 78.121094 46.582031 C 96.378906 51.023438 114.664062 55.460938 132.921875 59.898438 C 126.847656 66.382812 120.738281 72.960938 114.824219 79.316406 M 98.988281 140.664062 C 99.335938 137.359375 99.714844 133.960938 100.027344 130.621094 C 100.3125 127.949219 100.59375 125.210938 100.878906 122.597656 C 101.320312 118.410156 101.792969 114.066406 102.167969 109.816406 L 102.261719 109.0625 C 102.578125 106.355469 102.894531 103.554688 103.082031 100.753906 C 103.429688 100.5625 103.804688 100.375 104.214844 100.21875 C 104.6875 99.996094 105.160156 99.808594 105.632812 99.523438 C 112.902344 95.714844 120.171875 91.90625 127.476562 88.132812 C 134.746094 84.355469 142.207031 80.449219 149.601562 76.578125 C 142.867188 86.335938 136.101562 96.1875 129.554688 105.789062 C 123.917969 114.003906 118.128906 122.472656 112.367188 130.8125 C 110.101562 134.148438 107.742188 137.546875 105.503906 140.820312 C 102.988281 144.472656 100.40625 148.21875 97.886719 151.964844 C 98.203125 148.1875 98.582031 144.378906 98.988281 140.664062 M 55.113281 48.976562 C 54.703125 47.84375 54.261719 46.679688 53.886719 45.578125 C 62.382812 55.835938 70.945312 66.160156 79.285156 76.171875 C 83.597656 81.363281 87.910156 86.527344 92.222656 91.75 C 93.074219 92.726562 93.921875 93.765625 94.742188 94.773438 C 95.8125 96.0625 96.882812 97.417969 98.046875 98.707031 C 97.667969 101.949219 97.351562 105.222656 97.007812 108.371094 C 96.785156 110.574219 96.566406 112.777344 96.316406 115.011719 L 96.316406 115.042969 C 96.21875 116.460938 96.03125 117.875 95.875 119.261719 C 95.652344 121.179688 95.148438 125.523438 95.148438 125.523438 L 95.117188 125.746094 C 94.550781 132.101562 93.859375 138.523438 93.199219 144.753906 C 92.914062 147.335938 92.664062 149.980469 92.378906 152.625 C 92.222656 152.152344 92.035156 151.679688 91.875 151.238281 C 91.40625 149.980469 90.933594 148.660156 90.492188 147.367188 L 87.125 138.019531 C 76.453125 108.339844 65.785156 78.6875 55.113281 48.976562 "/>
</g>
</svg>
