<svg version="1.1" id="Layer_1" xmlns="http://www.w3.org/2000/svg" xmlns:xlink="http://www.w3.org/1999/xlink" x="0px" y="0px"
	 width="100%" viewBox="0 0 512 512" enable-background="new 0 0 512 512" xml:space="preserve">
<path fill="#FFB703" opacity="1.000000" stroke="none" 
	d="
M225.000000,1.000000 
	C246.020889,1.000000 267.041779,1.000000 288.190399,1.334587 
	C289.322052,2.111362 290.287659,2.784323 291.336121,2.958473 
	C298.401947,4.132115 305.590546,4.751397 312.544006,6.382988 
	C337.237244,12.177108 360.875000,20.750090 382.992340,33.414112 
	C399.311371,42.758133 414.874969,53.225632 428.391846,66.203125 
	C440.025787,77.372856 451.007751,89.368263 461.152466,101.909073 
	C477.370728,121.957924 489.282959,144.618011 498.011505,168.894562 
	C504.336304,186.485596 509.272186,204.426163 511.084869,223.121460 
	C511.151001,223.803116 512.336304,224.376266 513.000000,225.000000 
	C513.000000,246.020889 513.000000,267.041779 512.664795,288.190613 
	C511.889526,289.157593 511.203186,289.953522 511.047791,290.842316 
	C509.645996,298.858185 508.695801,306.969910 506.935059,314.903046 
	C501.310822,340.243439 491.864899,364.186920 478.712677,386.520935 
	C463.937103,411.611572 445.249390,433.508179 423.094025,452.496460 
	C408.905029,464.657196 393.638184,475.242249 377.156006,483.858429 
	C350.073090,498.016205 321.477905,507.803223 290.885925,511.083008 
	C290.196686,511.156921 289.626007,512.336304 289.000000,513.000000 
	C267.979095,513.000000 246.958206,513.000000 225.809509,512.665588 
	C224.843018,511.890564 224.047501,511.203339 223.158936,511.047852 
	C215.149658,509.646027 207.043732,508.698700 199.117813,506.936035 
	C171.657227,500.829071 145.919296,490.229706 122.053032,475.434937 
	C99.149162,461.236755 79.100761,443.597412 61.515228,423.104309 
	C49.456245,409.051514 38.959961,393.925842 30.385391,377.611084 
	C16.084387,350.400757 6.229922,321.652771 2.916992,290.887604 
	C2.842686,290.197601 1.663691,289.626556 0.999998,289.000000 
	C1.000000,267.645782 1.000000,246.291550 1.329139,224.809570 
	C2.102420,223.847931 2.760956,223.061707 2.958582,222.172989 
	C5.980408,208.583664 8.465078,194.854370 12.033022,181.411987 
	C16.999910,162.699051 25.044350,145.188721 34.868614,128.505081 
	C44.834774,111.580490 56.081871,95.596718 69.950806,81.617035 
	C76.827324,74.685608 83.916023,67.947922 91.163918,61.405281 
	C104.873795,49.029438 120.223900,38.862457 136.497086,30.313267 
	C163.674774,16.035345 192.414032,6.284473 223.117279,2.917220 
	C223.806656,2.841617 224.375122,1.663716 225.000000,1.000000 
M252.590424,456.992310 
	C264.024689,456.248749 275.573273,456.279968 286.871277,454.612976 
	C317.819580,450.046570 346.147888,438.656708 371.813904,420.563507 
	C398.744781,401.578552 419.843323,377.541473 434.768463,348.274567 
	C451.926300,314.629517 459.947021,278.890320 455.854095,241.122742 
	C454.232513,226.159256 451.943604,210.962906 447.423553,196.674500 
	C432.328094,148.955948 403.054016,111.735756 360.129425,85.859077 
	C316.586548,59.609688 269.478027,51.285557 219.508347,60.721462 
	C184.441986,67.343140 153.371902,82.440422 126.309593,105.936600 
	C107.727081,122.070404 92.377777,140.697739 80.900032,162.379303 
	C62.557423,197.028656 54.532623,233.869644 57.886528,273.153412 
	C59.963421,297.479767 65.843010,320.686035 76.366959,342.680359 
	C93.096291,377.643524 117.933090,405.422089 150.690384,426.165161 
	C181.525635,445.691162 215.320267,455.414978 252.590424,456.992310 
M451.191223,394.688812 
	C479.259521,354.089233 493.759583,309.179901 493.983551,259.756653 
	C494.013245,253.200363 490.401489,249.147690 484.745117,249.021393 
	C478.832825,248.889404 475.322144,252.987625 474.933624,259.751862 
	C474.371735,269.533813 473.985382,279.368164 472.625061,289.053894 
	C468.834564,316.043152 460.171051,341.494812 446.822906,365.264648 
	C433.146362,389.619232 415.449646,410.648987 393.676147,428.194519 
	C377.360443,441.341980 359.432068,451.767212 340.164825,459.966766 
	C332.174988,463.366974 331.850952,468.292480 333.636414,473.493011 
	C335.412842,478.667145 341.514587,480.379578 347.705200,477.639893 
	C355.152863,474.343872 362.561707,470.910278 369.754852,467.097656 
	C402.550842,449.714508 429.226837,425.366394 451.191223,394.688812 
M155.331406,42.815769 
	C149.598053,45.846226 143.728195,48.649078 138.174683,51.979439 
	C133.762589,54.625298 132.597122,60.873173 135.156723,65.167702 
	C137.634476,69.324913 143.101212,70.861176 147.789169,68.551590 
	C150.768753,67.083664 153.594696,65.307381 156.540329,63.766495 
	C187.776108,47.426815 221.173569,39.778885 256.276978,39.015984 
	C262.568390,38.879253 266.874542,35.036224 266.892670,29.530117 
	C266.910797,24.024799 262.574524,19.941095 256.330078,20.045044 
	C249.529861,20.158245 242.725403,20.492922 235.940811,20.981329 
	C207.917709,22.998640 181.366608,30.553505 155.331406,42.815769 
M38.576088,253.496796 
	C35.927235,248.770981 31.713142,246.244736 27.787838,247.382797 
	C23.532097,248.616638 19.958744,250.953476 20.082525,255.952438 
	C20.324955,265.743011 19.990330,275.675323 21.562304,285.275909 
	C23.972656,299.996796 26.737534,314.827667 31.308840,328.979767 
	C35.935188,343.302246 42.788857,356.924652 48.995071,370.705933 
	C50.914078,374.967163 57.474304,376.472534 61.685066,374.383850 
	C66.166534,372.160889 68.046028,366.846161 65.987442,362.023163 
	C65.269913,360.342041 64.242729,358.788055 63.582363,357.088409 
	C57.809334,342.229980 51.328968,327.590942 46.543056,312.418518 
	C40.613693,293.621094 39.469589,273.939728 38.576088,253.496796 
M90.006813,88.505150 
	C85.472374,93.375252 80.598495,97.976624 76.481483,103.177177 
	C69.983200,111.385735 63.764931,119.841316 57.875141,128.496521 
	C54.460312,133.514694 55.794460,138.573929 60.368977,141.583878 
	C64.871704,144.546585 71.034462,143.176407 74.339249,138.434921 
	C76.719849,135.019394 78.717987,131.276382 81.453339,128.180008 
	C91.247452,117.093193 101.236679,106.177109 111.248779,95.285309 
	C115.522079,90.636543 116.250633,85.526871 112.871391,81.456429 
	C109.302612,77.157684 103.940506,76.709274 98.644257,80.654312 
	C95.725945,82.828087 93.206642,85.537537 90.006813,88.505150 
z"/>
<path fill="#000000" opacity="1.000000" stroke="none" 
	d="
M513.000000,224.531342 
	C512.336304,224.376266 511.151001,223.803116 511.084869,223.121460 
	C509.272186,204.426163 504.336304,186.485596 498.011505,168.894562 
	C489.282959,144.618011 477.370728,121.957924 461.152466,101.909073 
	C451.007751,89.368263 440.025787,77.372856 428.391846,66.203125 
	C414.874969,53.225632 399.311371,42.758133 382.992340,33.414112 
	C360.875000,20.750090 337.237244,12.177108 312.544006,6.382988 
	C305.590546,4.751397 298.401947,4.132115 291.336121,2.958473 
	C290.287659,2.784323 289.322052,2.111362 288.659058,1.334587 
	C363.593719,1.000000 438.187408,1.000000 513.000000,1.000000 
	C513.000000,75.354088 513.000000,149.708389 513.000000,224.531342 
z"/>
<path fill="#000000" opacity="1.000000" stroke="none" 
	d="
M0.999998,289.468658 
	C1.663691,289.626556 2.842686,290.197601 2.916992,290.887604 
	C6.229922,321.652771 16.084387,350.400757 30.385391,377.611084 
	C38.959961,393.925842 49.456245,409.051514 61.515228,423.104309 
	C79.100761,443.597412 99.149162,461.236755 122.053032,475.434937 
	C145.919296,490.229706 171.657227,500.829071 199.117813,506.936035 
	C207.043732,508.698700 215.149658,509.646027 223.158936,511.047852 
	C224.047501,511.203339 224.843018,511.890564 225.340851,512.665588 
	C150.406296,513.000000 75.812599,513.000000 1.000000,513.000000 
	C1.000000,438.645905 1.000000,364.291626 0.999998,289.468658 
z"/>
<path fill="#000000" opacity="1.000000" stroke="none" 
	d="
M289.468658,513.000000 
	C289.626007,512.336304 290.196686,511.156921 290.885925,511.083008 
	C321.477905,507.803223 350.073090,498.016205 377.156006,483.858429 
	C393.638184,475.242249 408.905029,464.657196 423.094025,452.496460 
	C445.249390,433.508179 463.937103,411.611572 478.712677,386.520935 
	C491.864899,364.186920 501.310822,340.243439 506.935059,314.903046 
	C508.695801,306.969910 509.645996,298.858185 511.047791,290.842316 
	C511.203186,289.953522 511.889526,289.157593 512.664795,288.659302 
	C513.000000,363.593719 513.000000,438.187408 513.000000,513.000000 
	C438.645905,513.000000 364.291626,513.000000 289.468658,513.000000 
z"/>
<path fill="#000000" opacity="1.000000" stroke="none" 
	d="
M224.531342,1.000000 
	C224.375122,1.663716 223.806656,2.841617 223.117279,2.917220 
	C192.414032,6.284473 163.674774,16.035345 136.497086,30.313267 
	C120.223900,38.862457 104.873795,49.029438 91.163918,61.405281 
	C83.916023,67.947922 76.827324,74.685608 69.950806,81.617035 
	C56.081871,95.596718 44.834774,111.580490 34.868614,128.505081 
	C25.044350,145.188721 16.999910,162.699051 12.033022,181.411987 
	C8.465078,194.854370 5.980408,208.583664 2.958582,222.172989 
	C2.760956,223.061707 2.102420,223.847931 1.329139,224.340912 
	C1.000000,149.739456 1.000000,75.478920 1.000000,1.000000 
	C75.354088,1.000000 149.708389,1.000000 224.531342,1.000000 
z"/>
<path fill="#F99300" opacity="1.000000" stroke="none" 
	d="
M252.105545,456.990997 
	C215.320267,455.414978 181.525635,445.691162 150.690384,426.165161 
	C117.933090,405.422089 93.096291,377.643524 76.366959,342.680359 
	C65.843010,320.686035 59.963421,297.479767 57.886528,273.153412 
	C54.532623,233.869644 62.557423,197.028656 80.900032,162.379303 
	C92.377777,140.697739 107.727081,122.070404 126.309593,105.936600 
	C153.371902,82.440422 184.441986,67.343140 219.508347,60.721462 
	C269.478027,51.285557 316.586548,59.609688 360.129425,85.859077 
	C403.054016,111.735756 432.328094,148.955948 447.423553,196.674500 
	C451.943604,210.962906 454.232513,226.159256 455.854095,241.122742 
	C459.947021,278.890320 451.926300,314.629517 434.768463,348.274567 
	C419.843323,377.541473 398.744781,401.578552 371.813904,420.563507 
	C346.147888,438.656708 317.819580,450.046570 286.871277,454.612976 
	C275.573273,456.279968 264.024689,456.248749 252.105545,456.990997 
M92.123085,287.255219 
	C99.968399,327.752625 119.593010,361.390045 151.787949,387.171661 
	C187.535004,415.797852 228.478165,428.681824 274.211304,423.714508 
	C314.326447,419.357361 348.843689,402.818024 377.104553,373.577087 
	C413.176849,336.253815 428.220886,291.260803 423.604492,240.268494 
	C419.418396,194.029251 398.213684,155.816284 362.003937,126.570900 
	C321.732208,94.044823 275.435669,83.634926 224.991699,92.680519 
	C184.164566,100.001633 151.012482,121.184929 125.250870,153.501297 
	C101.504433,183.289749 90.035706,217.794250 89.187759,255.684662 
	C88.959267,265.894897 91.018387,276.156342 92.123085,287.255219 
z"/>
<path fill="#FFCC29" opacity="1.000000" stroke="none" 
	d="
M451.001770,394.993774 
	C429.226837,425.366394 402.550842,449.714508 369.754852,467.097656 
	C362.561707,470.910278 355.152863,474.343872 347.705200,477.639893 
	C341.514587,480.379578 335.412842,478.667145 333.636414,473.493011 
	C331.850952,468.292480 332.174988,463.366974 340.164825,459.966766 
	C359.432068,451.767212 377.360443,441.341980 393.676147,428.194519 
	C415.449646,410.648987 433.146362,389.619232 446.822906,365.264648 
	C460.171051,341.494812 468.834564,316.043152 472.625061,289.053894 
	C473.985382,279.368164 474.371735,269.533813 474.933624,259.751862 
	C475.322144,252.987625 478.832825,248.889404 484.745117,249.021393 
	C490.401489,249.147690 494.013245,253.200363 493.983551,259.756653 
	C493.759583,309.179901 479.259521,354.089233 451.001770,394.993774 
z"/>
<path fill="#FFCC29" opacity="1.000000" stroke="none" 
	d="
M155.664841,42.646072 
	C181.366608,30.553505 207.917709,22.998640 235.940811,20.981329 
	C242.725403,20.492922 249.529861,20.158245 256.330078,20.045044 
	C262.574524,19.941095 266.910797,24.024799 266.892670,29.530117 
	C266.874542,35.036224 262.568390,38.879253 256.276978,39.015984 
	C221.173569,39.778885 187.776108,47.426815 156.540329,63.766495 
	C153.594696,65.307381 150.768753,67.083664 147.789169,68.551590 
	C143.101212,70.861176 137.634476,69.324913 135.156723,65.167702 
	C132.597122,60.873173 133.762589,54.625298 138.174683,51.979439 
	C143.728195,48.649078 149.598053,45.846226 155.664841,42.646072 
z"/>
<path fill="#FFCC29" opacity="1.000000" stroke="none" 
	d="
M38.690376,253.903351 
	C39.469589,273.939728 40.613693,293.621094 46.543056,312.418518 
	C51.328968,327.590942 57.809334,342.229980 63.582363,357.088409 
	C64.242729,358.788055 65.269913,360.342041 65.987442,362.023163 
	C68.046028,366.846161 66.166534,372.160889 61.685066,374.383850 
	C57.474304,376.472534 50.914078,374.967163 48.995071,370.705933 
	C42.788857,356.924652 35.935188,343.302246 31.308840,328.979767 
	C26.737534,314.827667 23.972656,299.996796 21.562304,285.275909 
	C19.990330,275.675323 20.324955,265.743011 20.082525,255.952438 
	C19.958744,250.953476 23.532097,248.616638 27.787838,247.382797 
	C31.713142,246.244736 35.927235,248.770981 38.690376,253.903351 
z"/>
<path fill="#FFCC28" opacity="1.000000" stroke="none" 
	d="
M90.257133,88.255318 
	C93.206642,85.537537 95.725945,82.828087 98.644257,80.654312 
	C103.940506,76.709274 109.302612,77.157684 112.871391,81.456429 
	C116.250633,85.526871 115.522079,90.636543 111.248779,95.285309 
	C101.236679,106.177109 91.247452,117.093193 81.453339,128.180008 
	C78.717987,131.276382 76.719849,135.019394 74.339249,138.434921 
	C71.034462,143.176407 64.871704,144.546585 60.368977,141.583878 
	C55.794460,138.573929 54.460312,133.514694 57.875141,128.496521 
	C63.764931,119.841316 69.983200,111.385735 76.481483,103.177177 
	C80.598495,97.976624 85.472374,93.375252 90.257133,88.255318 
z"/>
<path fill="#FFCC29" opacity="1.000000" stroke="none" 
	d="
M92.075256,286.824768 
	C91.018387,276.156342 88.959267,265.894897 89.187759,255.684662 
	C90.035706,217.794250 101.504433,183.289749 125.250870,153.501297 
	C151.012482,121.184929 184.164566,100.001633 224.991699,92.680519 
	C275.435669,83.634926 321.732208,94.044823 362.003937,126.570900 
	C398.213684,155.816284 419.418396,194.029251 423.604492,240.268494 
	C428.220886,291.260803 413.176849,336.253815 377.104553,373.577087 
	C348.843689,402.818024 314.326447,419.357361 274.211304,423.714508 
	C228.478165,428.681824 187.535004,415.797852 151.787949,387.171661 
	C119.593010,361.390045 99.968399,327.752625 92.075256,286.824768 
M218.796356,225.279388 
	C216.323929,228.834671 213.645050,232.267197 211.437439,235.979935 
	C209.249008,239.660385 206.928955,240.495300 202.839417,238.640610 
	C183.272293,229.766449 163.599091,221.124481 143.897781,212.551208 
	C142.326569,211.867477 139.905472,211.717896 138.544434,212.490997 
	C137.699417,212.970978 137.590179,215.809616 138.031158,217.335037 
	C149.547211,257.170105 161.259750,296.948547 172.694519,336.806732 
	C174.237289,342.184448 176.692276,344.171082 182.447021,344.145355 
	C231.941849,343.923676 281.438110,344.018921 330.933929,344.017181 
	C339.108032,344.016876 339.127594,344.017334 341.481873,335.943695 
	C352.903412,296.775208 364.343719,257.612030 375.637695,218.406784 
	C376.195496,216.470535 375.442444,214.156631 375.299774,212.018585 
	C373.292542,212.297150 371.096313,212.141785 369.307068,212.920944 
	C350.066376,221.299728 330.835541,229.706573 311.736725,238.401657 
	C307.354156,240.396927 305.008820,239.656998 302.326996,235.688675 
	C289.082886,216.091187 275.556641,196.684280 262.112610,177.222092 
	C257.755493,170.914551 256.231018,170.939682 251.801529,177.358139 
	C240.920456,193.125092 230.055679,208.903305 218.796356,225.279388 
z"/>
<path fill="#F99300" opacity="1.000000" stroke="none" 
	d="
M218.990356,224.978180 
	C230.055679,208.903305 240.920456,193.125092 251.801529,177.358139 
	C256.231018,170.939682 257.755493,170.914551 262.112610,177.222092 
	C275.556641,196.684280 289.082886,216.091187 302.326996,235.688675 
	C305.008820,239.656998 307.354156,240.396927 311.736725,238.401657 
	C330.835541,229.706573 350.066376,221.299728 369.307068,212.920944 
	C371.096313,212.141785 373.292542,212.297150 375.299774,212.018585 
	C375.442444,214.156631 376.195496,216.470535 375.637695,218.406784 
	C364.343719,257.612030 352.903412,296.775208 341.481873,335.943695 
	C339.127594,344.017334 339.108032,344.016876 330.933929,344.017181 
	C281.438110,344.018921 231.941849,343.923676 182.447021,344.145355 
	C176.692276,344.171082 174.237289,342.184448 172.694519,336.806732 
	C161.259750,296.948547 149.547211,257.170105 138.031158,217.335037 
	C137.590179,215.809616 137.699417,212.970978 138.544434,212.490997 
	C139.905472,211.717896 142.326569,211.867477 143.897781,212.551208 
	C163.599091,221.124481 183.272293,229.766449 202.839417,238.640610 
	C206.928955,240.495300 209.249008,239.660385 211.437439,235.979935 
	C213.645050,232.267197 216.323929,228.834671 218.990356,224.978180 
z"/>
</svg>